<?xml version="1.0" encoding="UTF-8" standalone="no"?>
<!-- Created with Inkscape (http://www.inkscape.org/) -->

<svg
   width="159.70097mm"
   height="10.112822mm"
   viewBox="0 0 159.70097 10.11282"
   version="1.1"
   id="svg1"
   xml:space="preserve"
   xmlns:xlink="http://www.w3.org/1999/xlink"
   xmlns="http://www.w3.org/2000/svg"
   xmlns:svg="http://www.w3.org/2000/svg"><defs
     id="defs1"><linearGradient
       id="linearGradient29"><stop
         style="stop-color:#00ebbe;stop-opacity:1;"
         offset="0.34983498"
         id="stop29" /><stop
         style="stop-color:#68b8d2;stop-opacity:1;"
         offset="0.63696373"
         id="stop30" /></linearGradient><linearGradient
       xlink:href="#linearGradient29"
       id="linearGradient30"
       x1="136.08989"
       y1="2.0252609"
       x2="136.08989"
       y2="53.401237"
       gradientUnits="userSpaceOnUse" /></defs><g
     id="g30"
     style="display:inline"
     transform="matrix(0.77712115,0,0,0.77712115,-85.795651,-16.48014)"><path
       id="path30"
       style="display:inline;fill:url(#linearGradient30);stroke:none;stroke-width:1.07187;stroke-linecap:square;stroke-miterlimit:7.6;paint-order:fill markers stroke"
       d="m 110.4019,21.206656 3.0272,1.35208 c 0,0 4.92441,2.203454 7.82304,3.831415 1.45158,0.815238 2.66611,4.144903 4.06556,5.866176 1.07195,1.318453 2.84113,1.963514 4.70437,1.963514 h 26.77957 c 2.53647,0 4.97645,-2.216 4.97624,-4.90491 v -8.108275 z m 12.72643,4.703857 c 0.37602,0.265041 0.73516,0.541112 1.08227,0.819207 -0.34711,-0.278095 -0.70625,-0.554166 -1.08227,-0.819207 z" /><text
       xml:space="preserve"
       style="font-style:normal;font-variant:normal;font-weight:600;font-stretch:normal;font-size:6.35px;line-height:0;font-family:'Hiragino Kaku Gothic Pro';-inkscape-font-specification:'Hiragino Kaku Gothic Pro Semi-Bold';text-align:start;letter-spacing:-0.140161px;writing-mode:lr-tb;direction:ltr;text-anchor:start;opacity:1;fill:#544fa3;fill-opacity:1;stroke:#260257;stroke-width:1.6;stroke-linecap:square;stroke-linejoin:round;stroke-miterlimit:7.6;stroke-dasharray:none;stroke-opacity:1;paint-order:stroke markers fill"
       x="143.41559"
       y="31.265057"
       id="text30"><tspan
         id="tspan30"
         style="font-style:normal;font-variant:normal;font-weight:600;font-stretch:normal;font-size:6.35px;font-family:'Hiragino Kaku Gothic Pro';-inkscape-font-specification:'Hiragino Kaku Gothic Pro Semi-Bold';text-align:center;letter-spacing:-0.140161px;text-anchor:middle;fill:#544fa3;fill-opacity:1;stroke:#260257;stroke-width:1.6;stroke-dasharray:none;stroke-opacity:1;paint-order:stroke markers fill"
         x="143.3455"
         y="31.265057">about</tspan></text></g><g
     id="g7"
     transform="matrix(0.83282664,0,0,0.83282664,-50.221986,-17.661469)"><path
       id="path20"
       style="fill:#00ebbe;stroke-width:1.00017;stroke-linecap:square;stroke-miterlimit:7.6;paint-order:fill markers stroke"
       d="m 108.24263,21.206657 2.82471,1.261641 c 0,0 4.59502,2.056067 7.29977,3.575135 1.35448,0.760708 2.53336,1.883215 3.79362,2.861842 1.26024,0.978627 2.65109,1.832177 4.3897,1.832177 h 24.98831 c 2.3668,0 4.64358,-2.067774 4.64338,-4.576826 v -4.953969 z m 11.87517,4.389221 c 0.35087,0.247312 0.68599,0.504917 1.00988,0.764411 -0.32389,-0.259494 -0.65901,-0.517099 -1.00988,-0.764411 z" /><text
       xml:space="preserve"
       style="font-style:normal;font-variant:normal;font-weight:600;font-stretch:normal;font-size:5.92525px;line-height:0;font-family:'Hiragino Kaku Gothic Pro';-inkscape-font-specification:'Hiragino Kaku Gothic Pro Semi-Bold';text-align:start;letter-spacing:-0.140161px;writing-mode:lr-tb;direction:ltr;text-anchor:start;display:inline;opacity:1;fill:#544fa3;fill-opacity:1;stroke:#260257;stroke-width:1.49298;stroke-linecap:square;stroke-linejoin:round;stroke-miterlimit:7.6;stroke-dasharray:none;stroke-opacity:1;paint-order:stroke markers fill"
       x="140.16881"
       y="27.980211"
       id="text7"><tspan
         id="tspan7"
         style="font-style:normal;font-variant:normal;font-weight:600;font-stretch:normal;font-size:5.92525px;font-family:'Hiragino Kaku Gothic Pro';-inkscape-font-specification:'Hiragino Kaku Gothic Pro Semi-Bold';text-align:center;letter-spacing:-0.140161px;text-anchor:middle;fill:#544fa3;fill-opacity:1;stroke:#260257;stroke-width:1.49298;stroke-dasharray:none;stroke-opacity:1;paint-order:stroke markers fill"
         x="140.09872"
         y="27.980211">résumé</tspan></text></g><g
     id="g9"
     transform="matrix(0.77712132,0,0,0.77711949,-5.9454949,-16.480104)"
     style="display:inline"><path
       id="path25"
       style="fill:#00ebbe;stroke-width:1.00011;stroke-linecap:square;stroke-miterlimit:7.6;paint-order:fill markers stroke"
       d="m 110.4026,21.206655 3.02542,1.351496 c 0,0 4.92425,2.204719 7.823,3.83277 1.45162,0.815286 2.71617,2.017482 4.0668,3.06632 1.35064,1.048838 2.84022,1.963416 4.70353,1.963416 h 26.78177 c 2.53657,0 4.9756,-2.216117 4.97537,-4.905181 v -5.308821 z m 12.72549,4.703102 c 0.37616,0.265024 0.73546,0.541099 1.08272,0.819168 -0.34726,-0.278069 -0.70656,-0.554144 -1.08272,-0.819168 z" /><text
       xml:space="preserve"
       style="font-style:normal;font-variant:normal;font-weight:600;font-stretch:normal;font-size:6.34999px;line-height:0;font-family:'Hiragino Kaku Gothic Pro';-inkscape-font-specification:'Hiragino Kaku Gothic Pro Semi-Bold';text-align:start;letter-spacing:-0.133056px;writing-mode:lr-tb;direction:ltr;text-anchor:start;display:inline;opacity:1;fill:#544fa3;fill-opacity:1;stroke:#260257;stroke-width:1.6;stroke-linecap:square;stroke-linejoin:round;stroke-miterlimit:7.6;stroke-dasharray:none;stroke-opacity:1;paint-order:stroke markers fill"
       x="143.83835"
       y="28.465759"
       id="text10"><tspan
         id="tspan10"
         style="font-style:normal;font-variant:normal;font-weight:600;font-stretch:normal;font-size:6.34999px;font-family:'Hiragino Kaku Gothic Pro';-inkscape-font-specification:'Hiragino Kaku Gothic Pro Semi-Bold';text-align:center;letter-spacing:-0.133056px;text-anchor:middle;fill:#544fa3;fill-opacity:1;stroke:#260257;stroke-width:1.6;stroke-dasharray:none;stroke-opacity:1;paint-order:stroke markers fill"
         x="143.77182"
         y="28.465759">studies</tspan></text></g><g
     id="g11"
     transform="matrix(0.77712132,0,0,0.77711949,33.980138,-16.480507)"
     style="display:inline"><path
       id="path29"
       style="fill:#00ebbe;stroke-width:1.00015;stroke-linecap:square;stroke-miterlimit:7.6;paint-order:fill markers stroke"
       d="m 110.40225,21.207172 3.02615,1.351496 c 0,0 4.92488,2.204878 7.82356,3.83277 1.45158,0.815206 2.71443,2.017584 4.06502,3.06632 1.35061,1.048735 2.84058,1.963416 4.70385,1.963416 h 26.78004 c 2.53649,0 4.9775,-2.217931 4.97727,-4.906731 l -0.002,-5.307271 z m 12.72433,4.703102 c 0.37618,0.265027 0.736,0.541087 1.0833,0.819168 -0.3473,-0.278081 -0.70712,-0.554141 -1.0833,-0.819168 z" /><text
       xml:space="preserve"
       style="font-style:normal;font-variant:normal;font-weight:600;font-stretch:normal;font-size:6.34999px;line-height:0;font-family:'Hiragino Kaku Gothic Pro';-inkscape-font-specification:'Hiragino Kaku Gothic Pro Semi-Bold';text-align:start;letter-spacing:-0.133056px;writing-mode:lr-tb;direction:ltr;text-anchor:start;display:inline;opacity:1;fill:#544fa3;fill-opacity:1;stroke:#260257;stroke-width:1.6;stroke-linecap:square;stroke-linejoin:round;stroke-miterlimit:7.6;stroke-dasharray:none;stroke-opacity:1;paint-order:stroke markers fill"
       x="143.83835"
       y="28.465759"
       id="text11"><tspan
         id="tspan11"
         style="font-style:normal;font-variant:normal;font-weight:600;font-stretch:normal;font-size:6.34999px;font-family:'Hiragino Kaku Gothic Pro';-inkscape-font-specification:'Hiragino Kaku Gothic Pro Semi-Bold';text-align:center;letter-spacing:-0.133056px;text-anchor:middle;fill:#544fa3;fill-opacity:1;stroke:#260257;stroke-width:1.6;stroke-dasharray:none;stroke-opacity:1;paint-order:stroke markers fill"
         x="143.77182"
         y="28.465759">blog</tspan></text></g></svg>
