<?xml version="1.0" encoding="UTF-8" standalone="no"?>
<!-- Created with Inkscape (http://www.inkscape.org/) -->

<svg
   version="1.1"
   id="svg1"
   width="1411.2"
   height="688.32001"
   viewBox="0 0 1411.1999 688.32"
   sodipodi:docname="landing_page.svg"
   xml:space="preserve"
   inkscape:version="1.4 (e7c3feb1, 2024-10-09)"
   xmlns:inkscape="http://www.inkscape.org/namespaces/inkscape"
   xmlns:sodipodi="http://sodipodi.sourceforge.net/DTD/sodipodi-0.dtd"
   xmlns="http://www.w3.org/2000/svg"
   xmlns:svg="http://www.w3.org/2000/svg"><defs
     id="defs1"><style
       id="style1">.cls-1{fill:#2681ab;fill-rule:evenodd;}</style><style
       id="style1-2">.cls-1{fill:#22C3D5;fill-rule:evenodd;}</style><style
       id="style1-9">.cls-1{fill:#6de4de;fill-rule:evenodd;}</style><style
       id="style1-3">.cls-1{fill:#e6f0d7;fill-rule:evenodd;}</style><style
       id="style1-1">.cls-1{fill:#fcf3db;fill-rule:evenodd;}</style><style
       id="style1-8">.cls-1{fill:#f2e2b8;fill-rule:evenodd;}</style><style
       id="style1-83">.cls-1{fill:#f2e2b8;}.cls-1,.cls-10,.cls-11,.cls-2,.cls-3,.cls-5,.cls-6,.cls-7,.cls-8,.cls-9{fill-rule:evenodd;}.cls-2{fill:#fff;}.cls-3,.cls-4{fill:#fe81b4;}.cls-5{fill:#9cc;}.cls-6{fill:#ede2c7;}.cls-7{fill:#e6e6e6;}.cls-8{fill:#d8719f;}.cls-9{fill:#88b8b8;}.cls-10{fill:#53ccce;}.cls-11{fill:#fefefc;}</style><style
       id="style1-4">.cls-1{fill:#f2e2b8;}.cls-1,.cls-10,.cls-11,.cls-2,.cls-3,.cls-5,.cls-6,.cls-7,.cls-8,.cls-9{fill-rule:evenodd;}.cls-2{fill:#fff;}.cls-3,.cls-4{fill:#fe81b4;}.cls-5{fill:#9cc;}.cls-6{fill:#ede2c7;}.cls-7{fill:#e6e6e6;}.cls-8{fill:#d8719f;}.cls-9{fill:#88b8b8;}.cls-10{fill:#53ccce;}.cls-11{fill:#fefefc;}</style><style
       id="style1-18">.cls-1{fill:#f2e2b8;}.cls-2{fill:#e94f86;fill-rule:evenodd;}.cls-3{fill:#be035c;}</style></defs><sodipodi:namedview
     id="namedview1"
     pagecolor="#ffffff"
     bordercolor="#000000"
     borderopacity="0.25"
     inkscape:showpageshadow="2"
     inkscape:pageopacity="0.0"
     inkscape:pagecheckerboard="0"
     inkscape:deskcolor="#d1d1d1"
     inkscape:zoom="0.58368492"
     inkscape:cx="543.95786"
     inkscape:cy="436.02292"
     inkscape:window-width="1472"
     inkscape:window-height="809"
     inkscape:window-x="0"
     inkscape:window-y="37"
     inkscape:window-maximized="1"
     inkscape:current-layer="g39" /><rect
     style="display:inline;fill:#f9edce;fill-opacity:1;stroke:none;stroke-width:46.0857;stroke-linecap:round;stroke-linejoin:round;stroke-miterlimit:7.6;paint-order:fill markers stroke"
     id="rect1"
     width="1411.2034"
     height="688.32281"
     x="0"
     y="0" /><g
     id="g2"
     inkscape:label="surfnturf"
     style="display:inline"
     transform="scale(3)"><path
       class="cls-1"
       d="m 600.614,134.62595 c -15.59094,-9.35331 -19.75144,-18.16857 -46.82912,-12.55659 -10.83608,2.24918 -15.60345,11.57433 -26.87122,12.4909 -10.46695,0.85399 -17.44909,-3.2283 -23.63354,-5.26163 -20.98082,-6.90393 -41.66759,-2.98743 -57.51192,6.4566 -12.9132,7.71413 -29.40506,1.9864 -41.58313,-3.30964 -19.19775,-8.3429 -53.37957,9.88198 -85.08699,0.21585 -23.35199,-7.11978 -33.0932,2.15846 -50.3327,4.48584 -29.9306,4.04476 -33.56556,-8.15209 -63.5556,-3.47543 -13.69525,2.13656 -20.6461,5.12086 -34.24438,6.21886 -49.2785,3.97594 -30.37167,2.84978 -57.099,2.84978 -21.04026,0 -32.49572,-10.49823 -59.47955,-6.85388 -26.68979,3.60994 -18.75042,-11.15515 -39.60611,-11.15515 -3.782,0 -8.94978,0.14702 -14.78074,0.47236 v 129.30719 h 600.614 z"
       id="path1-2"
       style="display:inline;fill:#f2e2b8;fill-rule:evenodd;stroke-width:0.31282"
       inkscape:label="wetsand3" /><path
       class="cls-1"
       d="m 600.614,144.77003 c -34.50402,1.75492 -33.43731,-8.52747 -68.50753,2.684 -21.3218,6.82572 -47.31713,-15.19679 -73.12789,-7.66096 -23.00164,6.70998 -27.91291,11.3272 -56.4233,6.16881 -8.87783,-1.60477 -32.53326,-0.52867 -39.54981,2.66522 -14.98407,6.81321 -49.78214,8.49619 -65.74846,3.40035 -21.34995,-6.80383 -34.53218,-4.25748 -56.25126,0.60374 -10.01023,2.23979 -25.65122,1.61728 -33.69069,-1.90194 -8.59003,-3.76948 -18.99755,-5.3586 -36.51545,2.57763 -10.10408,4.57656 -25.33841,3.57241 -37.71043,2.83102 -9.1187,-0.54743 -14.46479,-3.14696 -21.27175,-5.63075 -22.26338,-8.13332 -22.85461,-2.81538 -41.73328,0.0219 C 24.49692,157.40795 14.43038,139.07359 0,141.05999 v 114.42322 h 600.614 z"
       id="path1-57"
       style="display:inline;fill:#fcf3db;fill-rule:evenodd;stroke-width:0.31282"
       inkscape:label="wetsand2" /><path
       class="cls-1"
       d="m 600.614,167.33043 c -15.59094,-6.80696 -19.75144,-13.22603 -46.82912,-9.13122 -10.83608,1.63292 -15.60345,8.41173 -26.87122,9.07178 -10.46695,0.62564 -17.44909,-2.34615 -23.63354,-3.82266 -20.98082,-5.01763 -37.61032,-0.72574 -53.44526,6.1563 -12.92571,5.6026 -33.47172,8.69013 -45.67169,4.83306 -19.19775,-6.07183 -53.35767,-1.51718 -85.05257,-8.54311 -23.352,-5.17091 -33.47172,4.6704 -50.71122,6.35337 -29.94311,2.95302 -33.19956,-9.02485 -63.1896,-5.63075 -13.69525,1.56409 -20.53036,5.34296 -34.24438,4.5265 -49.26286,-2.92174 -50.36399,1.91446 -77.08818,1.91446 -21.04026,0 -12.51279,-7.4764 -39.49037,-4.82681 -26.68979,2.62768 -18.75042,-8.11455 -39.60611,-8.11455 -3.782,0 -8.94978,0.10323 -14.78074,0.3441 v 94.05866 h 600.614 z"
       id="path1-07"
       style="fill:#e6f0d7;fill-rule:evenodd;stroke-width:0.31282"
       inkscape:label="wetsand1" /><path
       class="cls-1"
       d="m 600.614,180.71325 c -64.14683,0.64441 -106.35873,9.33141 -160.39209,7.16357 -51.54332,-2.06774 -163.02291,-14.28335 -321.5287,2.6183 C 93.00758,193.22604 40.72601,198.64095 0,186.8539 v 67.31882 h 600.614 z"
       id="path1-5"
       style="display:inline;fill:#6de4de;fill-rule:evenodd;stroke-width:0.31282"
       inkscape:label="surf2" /><path
       class="cls-1"
       d="m 600.61388,193.2374 c -59.54208,3.61306 -76.64082,8.71515 -115.77769,13.0133 -44.42041,4.87998 -119.14989,2.89671 -178.04762,0.18143 -59.43575,-2.7403 -142.18596,-13.2135 -215.051056,-1.51092 C 71.55438,208.16203 37.763598,211.64684 0,212.00658 v 45.62789 h 600.61388 z"
       id="path1-8"
       style="display:inline;fill:#22c3d5;fill-rule:evenodd;stroke-width:0.312818"
       inkscape:label="surf1" /></g><g
     id="Layer_1-2-5"
     data-name="Layer 1"
     inkscape:label="beachball"
     style="display:inline"
     transform="matrix(1.0817809,-0.01101966,0.01101966,1.0817809,1032.11,347.56575)"><circle
       class="cls-1"
       cx="47.98"
       cy="48.799999"
       r="40.66"
       transform="rotate(-45,47.981689,48.795334)"
       id="circle1"
       style="fill:#f2e2b8" /><path
       class="cls-2"
       d="M 19.07,5.93 A 40,40 0 1 1 5.93,61 40,40 0 0 1 19.07,6"
       id="path1"
       style="fill:#ffffff;fill-rule:evenodd" /><path
       class="cls-3"
       d="m 51.86,8.59 c 1,0.6 7.83,2.36 8.56,3.12 a 24.81,24.81 0 0 1 6.31,-1.47 40,40 0 0 0 -21.8,-9.91"
       id="path2"
       style="fill:#00a2ac" /><path
       class="cls-4"
       d="M 80,40.47 C 76.89,29.12 66,20.55 63.11,18.47 a 4.86,4.86 0 0 1 -0.65,1.81 6,6 0 0 1 -5.3,2.53 c 0.85,5.67 6.32,46.54 -10.58,56.69 A 40,40 0 0 0 80,40.47 Z"
       id="path3"
       style="fill:#ffce01" /><path
       class="cls-5"
       d="M 48.15,18.68 C 45.93,16.29 45.01,13.39 45.87,11.1 41.62,9.9 21.87,5.16 8.16,15.83 A 40,40 0 0 0 5.93,61 41.18,41.18 0 0 0 8.69,64.93 C 8.94,49.39 43.07,22.59 48.15,18.68 Z"
       id="path4"
       style="fill:#e01059" /><path
       class="cls-6"
       d="m 57.85,9.65 c 4.48,2.76 6.56,7.53 4.64,10.64 -1.92,3.11 -7.11,3.4 -11.6,0.63 -4.49,-2.77 -6.55,-7.53 -4.63,-10.64 1.92,-3.11 7.11,-3.4 11.59,-0.63"
       id="path5"
       style="fill:#ffffff" /></g><g
     id="Layer_1-2-0"
     data-name="Layer 1"
     inkscape:label="starfish"
     transform="matrix(1.0324055,0,0,1.0324055,191.3155,451.57695)"><path
       class="cls-1"
       d="m 40.05,86.76 c 4,1 6.63,-3.55 7.92,-6.48 2.27,-5.14 4.48,-10.3 6.72,-15.45 A 11.66,11.66 0 0 1 57.85,60 c 2.21,-1.69 5.29,-1.53 8,-0.92 6.9,1.56 13.64,2 20.51,4.1 A 11.86,11.86 0 0 0 90.5,63.95 3.86,3.86 0 0 0 93.92,61.82 4,4 0 0 0 93,57.9 12.1,12.1 0 0 0 89.6,55.48 c -5.36,-3 -16,-7.91 -17.95,-14.45 a 10.89,10.89 0 0 1 0.51,-6.29 33.13,33.13 0 0 1 5,-10.39 c 2.16,-2.74 4.69,-4.94 6.32,-8.15 0.76,-1.51 1.29,-3.45 0.28,-4.8 -1.01,-1.35 -3.28,-1.35 -5,-0.85 A 36,36 0 0 0 67.9,15.77 c -2.68,1.89 -5.29,3.93 -8.3,5.19 -3.01,1.26 -6.54,1.68 -9.47,0.25 A 16.61,16.61 0 0 1 45,16.63 C 41.73,12.69 38,8.71 35.28,4.32 33.77,1.84 29.46,-1.82 26.59,1.05 c -2.58,2.58 -0.36,8.27 0.5,11.16 a 62.89,62.89 0 0 1 2.51,14 c 0.16,2.46 0.27,5.91 -1.2,8.06 -1.36,2 -5.34,3.09 -7.49,4 A 111.14,111.14 0 0 1 8.78,42.86 c -2.4,0.74 -5.71,1 -7.52,3 -2.19,2.42 -1.41,4.94 1.46,5.72 8,2.2 16.76,0.25 24.74,2.94 a 13.14,13.14 0 0 1 6.2,4 c 2.25,2.82 1.27,5.48 1.53,8.69 0.32,4 0.58,7.93 0.87,11.89 0.23,3.1 1,6.92 4,7.69"
       id="path1-9"
       style="fill:#f04c46" /><path
       class="cls-2"
       d="m 67.55,39.4 c -0.19,-1.33 -1.9,-1.7 -3.23,-1.74 -2.55,-0.08 -6.47,0.61 -8.58,-1 -2.11,-1.61 -2.2,-9.72 -3,-11.88 A 3.32,3.32 0 0 0 51.62,23 c -1,-0.61 -2.34,0.06 -3,1 -0.66,0.94 -1.29,6.73 -1.8,7.79 -1.32,2.74 -2.34,3.14 -5.21,3 -1.79,-0.09 -7.87,-2.13 -9,-1.15 a 2.12,2.12 0 0 0 -0.29,2.74 c 1.14,1.67 4.22,2.45 6,4 2.24,1.89 3.07,2.93 1.9,5.64 -1.05,2.42 -1.76,3.61 -2.81,6 -0.2,0.45 -0.72,2.27 -0.39,2.62 a 1.09,1.09 0 0 0 1,0.19 c 2.34,-0.39 4,-2.46 5.61,-4.2 2.45,-2.63 3.86,-3.63 6.47,-0.09 1.6,2.18 2.38,3.55 3.58,5.47 0.53,0.83 1,1.81 2.13,2.08 1.18,0 1.42,-0.86 1.44,-1.62 0.06,-3.25 -2.19,-8 -1.46,-11.21 0.78,-3.36 6.82,-2.11 9.53,-3.3 1.11,-0.5 2.39,-1.35 2.23,-2.56 z"
       id="path2-7"
       style="fill:#ba3936;fill-rule:evenodd" /><path
       class="cls-3"
       d="M 5.35,46 A 1.82,1.82 0 0 0 4,46.35 1.83,1.83 0 0 0 3.6,48.9 1.89,1.89 0 0 0 4.78,49.62 1.81,1.81 0 0 0 6.84,48.1 1.8,1.8 0 0 0 6.52,46.75 1.85,1.85 0 0 0 5.35,46 Z"
       id="path3-1"
       style="fill:#ffffff" /><path
       class="cls-3"
       d="M 10.36,45.45 A 1.81,1.81 0 0 0 8.3,47 a 1.8,1.8 0 0 0 0.32,1.35 1.85,1.85 0 0 0 1.17,0.73 1.82,1.82 0 0 0 1.34,-0.33 1.85,1.85 0 0 0 0.73,-1.19 1.92,1.92 0 0 0 -0.32,-1.36 1.89,1.89 0 0 0 -1.18,-0.75 z"
       id="path4-7"
       style="fill:#ffffff" /><path
       class="cls-3"
       d="m 15.28,45.47 a 1.22,1.22 0 0 0 -1.17,1.92 1.19,1.19 0 0 0 1.68,0.27 1.3,1.3 0 0 0 0.49,-0.8 1.23,1.23 0 0 0 -1,-1.39 z"
       id="path5-45"
       style="fill:#ffffff" /><path
       class="cls-3"
       d="m 20.23,45.26 a 0.86,0.86 0 0 0 -0.62,0.16 0.87,0.87 0 0 0 -0.34,0.55 0.88,0.88 0 0 0 0.15,0.63 0.83,0.83 0 0 0 1.17,0.19 0.86,0.86 0 0 0 0.19,-1.19 0.91,0.91 0 0 0 -0.55,-0.34 z"
       id="path6-17"
       style="fill:#ffffff" /><path
       class="cls-3"
       d="m 25.4,43.73 a 1.82,1.82 0 0 0 -1.34,0.33 1.87,1.87 0 0 0 -0.73,1.19 1.82,1.82 0 0 0 1.5,2.08 A 1.82,1.82 0 0 0 26.17,47 1.9,1.9 0 0 0 26.9,45.81 1.92,1.92 0 0 0 26.58,44.45 1.89,1.89 0 0 0 25.4,43.73 Z"
       id="path7-8"
       style="fill:#ffffff" /><path
       class="cls-3"
       d="m 30.35,43.54 a 1.43,1.43 0 0 0 -1.62,1.19 1.45,1.45 0 0 0 0.27,1.07 1.4,1.4 0 0 0 2,0.31 1.45,1.45 0 0 0 0.57,-0.93 1.5,1.5 0 0 0 -0.25,-1.07 1.48,1.48 0 0 0 -0.97,-0.57 z"
       id="path8-2"
       style="fill:#ffffff" /><path
       class="cls-3"
       d="m 35.43,42.58 a 1.86,1.86 0 0 0 -1.35,0.33 1.84,1.84 0 0 0 -0.4,2.55 1.8,1.8 0 0 0 2.52,0.39 1.82,1.82 0 0 0 0.72,-1.19 1.84,1.84 0 0 0 -0.32,-1.35 1.88,1.88 0 0 0 -1.17,-0.73 z"
       id="path9-5"
       style="fill:#ffffff" /><path
       class="cls-3"
       d="M 31.34,3.39 A 1.84,1.84 0 0 0 30.6,2.22 1.82,1.82 0 0 0 29.24,1.91 1.85,1.85 0 0 0 28.06,2.64 1.83,1.83 0 0 0 27.74,4 1.84,1.84 0 0 0 28.48,5.17 1.82,1.82 0 0 0 31.34,3.41 Z"
       id="path10-4"
       style="fill:#ffffff" /><path
       class="cls-3"
       d="m 32.67,8.09 a 1,1 0 0 0 -0.41,-0.65 1.05,1.05 0 0 0 -0.75,-0.17 1.07,1.07 0 0 0 -0.66,0.41 1,1 0 0 0 -0.18,0.74 1.05,1.05 0 0 0 0.41,0.65 1,1 0 0 0 0.76,0.17 1,1 0 0 0 0.65,-0.4 1,1 0 0 0 0.18,-0.75 z"
       id="path11"
       style="fill:#ffffff" /><path
       class="cls-3"
       d="m 35.07,12.62 a 1.29,1.29 0 0 0 -2.31,-0.53 1.35,1.35 0 0 0 -0.23,0.95 1.31,1.31 0 0 0 0.52,0.83 1.37,1.37 0 0 0 1,0.22 1.34,1.34 0 0 0 0.84,-0.52 1.28,1.28 0 0 0 0.18,-0.95 z"
       id="path12"
       style="fill:#ffffff" /><path
       class="cls-3"
       d="M 37.73,17.11 A 1.79,1.79 0 0 0 37,15.94 a 1.84,1.84 0 0 0 -1.36,-0.31 1.9,1.9 0 0 0 -1.19,0.73 1.87,1.87 0 0 0 -0.31,1.34 1.79,1.79 0 0 0 0.73,1.17 1.85,1.85 0 0 0 2.55,-0.42 1.87,1.87 0 0 0 0.31,-1.34 z"
       id="path13"
       style="fill:#ffffff" /><path
       class="cls-3"
       d="m 39.23,21.79 a 1.17,1.17 0 0 0 -0.48,-0.76 1.18,1.18 0 0 0 -1.64,0.27 1.17,1.17 0 0 0 0.27,1.63 1.18,1.18 0 0 0 1.85,-1.14 z"
       id="path14"
       style="fill:#ffffff" /><path
       class="cls-3"
       d="M 42,26.25 A 1.82,1.82 0 0 0 39.9,24.77 1.83,1.83 0 0 0 38.4,26.85 1.83,1.83 0 0 0 41.68,27.6 1.9,1.9 0 0 0 42,26.25 Z"
       id="path15"
       style="fill:#ffffff" /><path
       class="cls-3"
       d="M 44.13,30.83 A 1.84,1.84 0 0 0 43.39,29.66 1.82,1.82 0 0 0 42,29.35 a 1.85,1.85 0 0 0 -1.18,0.73 1.8,1.8 0 0 0 1.78,2.82 1.87,1.87 0 0 0 1.18,-0.73 1.83,1.83 0 0 0 0.35,-1.34 z"
       id="path16"
       style="fill:#ffffff" /><path
       class="cls-3"
       d="m 56.86,32.1 a 1.83,1.83 0 0 0 -0.92,1 1.83,1.83 0 0 0 1.06,2.36 1.93,1.93 0 0 0 1.38,-0.06 1.88,1.88 0 0 0 0.93,-1 1.91,1.91 0 0 0 -0.04,-1.4 1.82,1.82 0 0 0 -2.41,-0.88 z"
       id="path17"
       style="fill:#ffffff" /><path
       class="cls-3"
       d="m 60.91,29.29 a 1.28,1.28 0 0 0 -0.65,0.72 1.33,1.33 0 0 0 0.05,1 1.35,1.35 0 0 0 0.73,0.66 1.3,1.3 0 0 0 1,0 1.26,1.26 0 0 0 0.64,-0.72 1.28,1.28 0 0 0 0,-1 1.26,1.26 0 0 0 -1.69,-0.61 z"
       id="path18"
       style="fill:#ffffff" /><path
       class="cls-3"
       d="m 64.49,25.49 a 1.83,1.83 0 0 0 -0.92,1 1.86,1.86 0 0 0 0.07,1.39 1.79,1.79 0 0 0 3.36,-0.12 1.86,1.86 0 0 0 -0.07,-1.39 1.82,1.82 0 0 0 -2.41,-0.88 z"
       id="path19"
       style="fill:#ffffff" /><path
       class="cls-3"
       d="m 68.7,23 a 0.89,0.89 0 0 0 -0.46,0.51 0.92,0.92 0 0 0 0,0.69 0.94,0.94 0 0 0 0.51,0.47 0.9,0.9 0 0 0 1.14,-0.55 A 0.91,0.91 0 0 0 69.38,23 0.94,0.94 0 0 0 68.7,23 Z"
       id="path20"
       style="fill:#ffffff" /><path
       class="cls-3"
       d="m 72.12,18.89 a 1.86,1.86 0 0 0 -0.93,1 1.94,1.94 0 0 0 0.08,1.4 1.8,1.8 0 1 0 2.23,-2.49 1.88,1.88 0 0 0 -1.38,0.09 z"
       id="path21"
       style="fill:#ffffff" /><path
       class="cls-3"
       d="m 76.3,16.35 a 1,1 0 0 0 -0.5,0.55 1,1 0 0 0 0,0.74 1,1 0 0 0 0.54,0.5 1,1 0 0 0 0.74,0 1,1 0 0 0 0.49,-0.55 1,1 0 0 0 -0.57,-1.27 1,1 0 0 0 -0.7,0.03 z"
       id="path22"
       style="fill:#ffffff" /><path
       class="cls-3"
       d="m 79.74,12.28 a 1.86,1.86 0 0 0 -0.92,1 1.81,1.81 0 0 0 0.08,1.39 1.86,1.86 0 0 0 1,0.94 1.88,1.88 0 0 0 1.38,-0.07 1.81,1.81 0 0 0 0.84,-2.42 1.8,1.8 0 0 0 -2.41,-0.87 z"
       id="path23"
       style="fill:#ffffff" /><path
       class="cls-3"
       d="m 61,48.26 a 0.91,0.91 0 0 0 -0.64,-0.16 0.87,0.87 0 0 0 -0.58,0.34 0.85,0.85 0 0 0 -0.17,0.65 0.85,0.85 0 0 0 1,0.74 0.92,0.92 0 0 0 0.58,-0.34 A 0.88,0.88 0 0 0 61,48.26 Z"
       id="path24"
       style="fill:#ffffff" /><path
       class="cls-3"
       d="M 66.23,49.36 A 1.79,1.79 0 0 0 64.9,49 a 1.83,1.83 0 0 0 -1.2,0.71 1.8,1.8 0 0 0 0.3,2.56 1.83,1.83 0 0 0 1.34,0.34 1.83,1.83 0 0 0 1.55,-2.06 1.84,1.84 0 0 0 -0.66,-1.19 z"
       id="path25"
       style="fill:#ffffff" /><path
       class="cls-3"
       d="m 70.6,51.64 a 1.35,1.35 0 0 0 -0.94,-0.24 1.34,1.34 0 0 0 -0.84,0.5 1.29,1.29 0 0 0 -0.25,1 1.35,1.35 0 0 0 0.49,0.84 1.36,1.36 0 0 0 0.94,0.24 1.34,1.34 0 0 0 0.84,-0.5 1.28,1.28 0 0 0 -0.24,-1.79 z"
       id="path26"
       style="fill:#ffffff" /><path
       class="cls-3"
       d="m 75.62,53.06 a 1.82,1.82 0 0 0 -1.34,-0.34 1.79,1.79 0 0 0 -1.19,0.71 1.86,1.86 0 0 0 -0.36,1.34 1.9,1.9 0 0 0 0.7,1.2 1.83,1.83 0 0 0 1.34,0.34 1.83,1.83 0 0 0 1.55,-2.06 1.84,1.84 0 0 0 -0.7,-1.19 z"
       id="path27"
       style="fill:#ffffff" /><path
       class="cls-3"
       d="m 80.32,54.91 a 1.8,1.8 0 0 0 -2.54,0.37 1.8,1.8 0 0 0 -0.35,1.34 1.78,1.78 0 0 0 2,1.54 1.92,1.92 0 0 0 1.2,-0.71 1.8,1.8 0 0 0 -0.34,-2.54 z"
       id="path28"
       style="fill:#ffffff" /><path
       class="cls-3"
       d="m 84.6,57.3 a 1.14,1.14 0 0 0 -1.58,0.23 1.12,1.12 0 0 0 -0.22,0.84 1.15,1.15 0 0 0 0.43,0.75 1.19,1.19 0 0 0 0.84,0.21 1.17,1.17 0 0 0 0.74,-0.44 1.11,1.11 0 0 0 0.22,-0.84 1.18,1.18 0 0 0 -0.43,-0.75 z"
       id="path29"
       style="fill:#ffffff" /><path
       class="cls-3"
       d="m 89.71,58.6 a 1.82,1.82 0 0 0 -2.54,0.37 1.83,1.83 0 0 0 -0.35,1.35 1.85,1.85 0 0 0 0.69,1.2 1.82,1.82 0 0 0 2.54,-0.37 1.83,1.83 0 0 0 0.35,-1.35 1.85,1.85 0 0 0 -0.69,-1.2 z"
       id="path30"
       style="fill:#ffffff" /><path
       class="cls-3"
       d="m 40.34,81.64 a 1.47,1.47 0 0 0 -0.06,1.09 1.44,1.44 0 0 0 1.84,0.89 1.42,1.42 0 0 0 0.82,-0.72 1.47,1.47 0 0 0 0.06,-1.09 1.44,1.44 0 0 0 -1.84,-0.89 1.42,1.42 0 0 0 -0.82,0.72 z"
       id="path31"
       style="fill:#ffffff" /><path
       class="cls-3"
       d="m 41.64,76.87 a 1,1 0 0 0 0,0.76 1,1 0 0 0 0.51,0.57 1.06,1.06 0 0 0 0.76,0 1,1 0 0 0 0.57,-0.51 1,1 0 0 0 0.05,-0.76 1.07,1.07 0 0 0 -0.52,-0.57 1,1 0 0 0 -1.33,0.46 z"
       id="path32"
       style="fill:#ffffff" /><path
       class="cls-3"
       d="m 41.8,71.55 a 1.83,1.83 0 0 0 2.25,2.5 1.77,1.77 0 0 0 1.11,-2.29 1.84,1.84 0 0 0 -2.32,-1.13 1.92,1.92 0 0 0 -1.04,0.92 z"
       id="path33"
       style="fill:#ffffff" /><path
       class="cls-3"
       d="m 43.21,66.83 a 1.25,1.25 0 0 0 -0.05,1 1.33,1.33 0 0 0 0.64,0.72 1.25,1.25 0 0 0 1.68,-0.58 1.24,1.24 0 0 0 -0.59,-1.66 1.28,1.28 0 0 0 -1,-0.06 1.31,1.31 0 0 0 -0.68,0.58 z"
       id="path34"
       style="fill:#ffffff" /><path
       class="cls-3"
       d="M 43.61,61.62 A 1.83,1.83 0 0 0 43.53,63 1.82,1.82 0 0 0 45.85,64.12 1.77,1.77 0 0 0 47,61.83 1.81,1.81 0 0 0 43.65,61.62 Z"
       id="path35"
       style="fill:#ffffff" /><path
       class="cls-3"
       d="m 44.51,56.65 a 1.81,1.81 0 0 0 0.85,2.42 1.81,1.81 0 0 0 2.43,-0.83 1.83,1.83 0 0 0 0.07,-1.38 1.78,1.78 0 0 0 -0.93,-1 1.81,1.81 0 0 0 -1.39,-0.09 1.84,1.84 0 0 0 -1.03,0.88 z"
       id="path36"
       style="fill:#ffffff" /><path
       class="cls-3"
       d="m 46.06,52 a 1.16,1.16 0 0 0 -0.05,0.84 1.13,1.13 0 0 0 0.57,0.63 1.16,1.16 0 0 0 0.84,0.05 A 1.1,1.1 0 0 0 48,53 a 1.09,1.09 0 0 0 0.05,-0.83 1.15,1.15 0 0 0 -0.56,-0.63 1.14,1.14 0 0 0 -0.85,0 1.15,1.15 0 0 0 -0.58,0.46 z"
       id="path37"
       style="fill:#ffffff" /></g><g
     id="Layer_1-2-3"
     data-name="Layer 1"
     inkscape:label="sandals"
     transform="matrix(-0.53566254,0,0,-0.53566254,336.2676,243.86916)"><path
       class="cls-1"
       d="M 64.34,35.58 63.62,35.23 C 63.02,34.95 62.4,34.7 61.77,34.47 A 29.43,29.43 0 0 1 53.25,28.91 C 44.64,20.36 8,7.07 1.09,28.56 -8.67,58.86 49.91,70 59.16,72.94 68.41,75.88 89.81,83.6 95.67,60.7 100,43.76 79.68,41.8 64.34,35.58 Z"
       id="path1-0"
       style="fill:#f2e2b8" /><path
       class="cls-1"
       d="m 167.09,50.55 c -5.38,-8.1 -31.94,-61.47 -58.46,-43.86 -18.81,12.49 3.91,44.14 14.47,50.11 a 29.35,29.35 0 0 1 7.67,6.69 c 0.4,0.54 0.8,1.08 1.24,1.58 l 0.53,0.6 c 10.14,13.07 17.54,32.1 32.67,23.33 20.45,-11.84 7.26,-30.35 1.88,-38.45 z"
       id="path2-8"
       style="fill:#f2e2b8" /><path
       class="cls-2"
       d="M 99.13,57.56 C 93.27,80.45 71.87,72.77 62.62,69.79 53.37,66.81 -5.21,55.71 4.55,25.42 c 6.93,-21.5 43.55,-8.21 52.16,0.34 13.07,12.97 47.97,10.1 42.42,31.8 z"
       id="path3-4"
       style="fill:#e94f86;fill-rule:evenodd" /><path
       class="cls-3"
       d="M 55.19,28.82 A 86,86 0 0 0 42.53,27.1 51.62,51.62 0 0 0 31,27.73 a 40.58,40.58 0 0 0 -5.65,1.41 13.09,13.09 0 0 0 -3.79,1.6 15.42,15.42 0 0 0 -2.08,-1.15 18.19,18.19 0 0 0 -2.16,-1.09 c -0.88,-0.34 -2.05,-0.85 -3,-0.26 a 1.46,1.46 0 0 0 -0.47,2 5.83,5.83 0 0 0 2.28,1.69 12,12 0 0 0 3.87,1.57 l 0.43,0.28 a 8.32,8.32 0 0 0 0.57,1.83 37,37 0 0 0 2.49,4.69 42.13,42.13 0 0 0 6.63,8.19 l 0.17,0.15 A 59.68,59.68 0 0 0 49.44,64 q 2.31,1.18 4.73,2.17 c 1.48,0.6 3.36,1.61 5.07,1.08 3.95,-1.2 0,-5 -1.57,-6.17 -2.9,-2.17 -6.38,-3.7 -9.44,-5.69 a 67.5,67.5 0 0 1 -8.8,-6.72 51.92,51.92 0 0 1 -7.12,-7.88 41.49,41.49 0 0 1 -3,-4.72 c -0.15,-0.28 -0.64,-0.88 -0.39,-1.21 0.25,-0.33 1.18,-0.28 1.43,-0.33 1,-0.23 2,-0.43 3.06,-0.61 a 70.57,70.57 0 0 1 24.17,0 q 3,0.53 6,1.34 c 0.92,0.25 1.84,0.51 2.74,0.8 a 15.12,15.12 0 0 0 2.77,0.88 1.4,1.4 0 0 0 1.63,-1.94 c -0.46,-1.42 -2.3,-2.32 -3.64,-2.94 -3.63,-1.68 -7.89,-2.43 -11.89,-3.24 z"
       id="path4-0"
       style="fill:#be035c" /><path
       class="cls-2"
       d="M 168.67,85.86 C 189.12,74 175.93,55.5 170.55,47.4 165.17,39.3 138.61,-14.07 112.09,3.54 93.28,16 116,47.68 126.56,53.65 c 16.04,9.06 22.73,43.43 42.11,32.21 z"
       id="path5-4"
       style="fill:#e94f86;fill-rule:evenodd" /><path
       class="cls-3"
       d="m 129.1,51.36 a 84.85,84.85 0 0 1 -5.1,-11.72 52.48,52.48 0 0 1 -2.53,-11.31 41.88,41.88 0 0 1 -0.18,-5.82 13.3,13.3 0 0 1 0.52,-4.08 15.47,15.47 0 0 1 -1.67,-1.69 17.31,17.31 0 0 1 -1.62,-1.74 c -0.57,-0.75 -1.38,-1.74 -1.07,-2.79 a 1.47,1.47 0 0 1 1.77,-1 5.9,5.9 0 0 1 2.24,1.73 12.13,12.13 0 0 1 2.59,3.29 l 0.39,0.34 a 8.18,8.18 0 0 1 1.92,0.06 36.91,36.91 0 0 1 5.19,1.12 41.92,41.92 0 0 1 9.68,4.16 l 0.19,0.12 a 59.91,59.91 0 0 1 20,14.31 q 1.75,1.91 3.37,4 c 1,1.26 2.45,2.8 2.41,4.59 -0.09,4.12 -4.8,1.37 -6.37,0.16 -2.87,-2.21 -5.29,-5.14 -8,-7.54 a 68.15,68.15 0 0 0 -8.86,-6.66 51.62,51.62 0 0 0 -9.51,-4.71 42.5,42.5 0 0 0 -5.46,-1.66 c -0.31,-0.07 -1,-0.38 -1.27,0 a 4.9,4.9 0 0 0 0.07,1.46 c 0.06,1 0.14,2.08 0.24,3.11 a 70.7,70.7 0 0 0 6.57,23.27 c 0.89,1.85 1.86,3.66 2.91,5.41 0.49,0.82 1,1.62 1.52,2.42 a 15.6,15.6 0 0 1 1.6,2.42 1.41,1.41 0 0 1 -1.39,2.05 c -1.48,-0.06 -2.84,-1.58 -3.81,-2.7 C 132.84,58.88 131,55 129.1,51.36 Z"
       id="path6-6"
       style="fill:#be035c" /></g><g
     id="Layer_1-2-6"
     data-name="Layer 1"
     inkscape:label="seat1"
     transform="scale(0.64410468)"><polygon
       class="cls-1"
       points="308.62,0 7.77,0 230.56,362.7 449,228.53 "
       id="polygon1-0"
       style="fill:#f2e2b8;fill-rule:evenodd" /><polygon
       class="cls-2"
       points="218.4,367.06 436.84,232.88 293.79,0 0,0 0,11.51 "
       id="polygon2-4"
       style="fill:#ffffff;fill-rule:evenodd" /><polygon
       class="cls-3"
       points="404.19,179.73 185.75,313.9 199.6,336.46 418.04,202.26 "
       id="polygon3-0"
       style="fill:#fe81b4;fill-rule:evenodd" /><rect
       class="cls-4"
       x="147.11"
       y="201.53999"
       width="256.35001"
       height="26.450001"
       transform="rotate(-31.58,275.27198,214.75566)"
       id="rect3-9"
       style="fill:#fe81b4" /><polygon
       class="cls-3"
       points="119.78,206.5 338.22,72.33 324.36,49.77 105.93,183.97 "
       id="polygon4-2"
       style="fill:#fe81b4;fill-rule:evenodd" /><rect
       class="cls-4"
       x="120.51"
       y="158.24001"
       width="256.35001"
       height="26.450001"
       transform="rotate(-31.57,248.69899,171.46193)"
       id="rect4-4"
       style="fill:#fe81b4" /><rect
       class="cls-4"
       x="67.290001"
       y="71.589996"
       width="256.35001"
       height="26.469999"
       transform="rotate(-31.54,195.50345,84.842756)"
       id="rect5-9"
       style="fill:#fe81b4" /><polygon
       class="cls-5"
       points="39.96,76.55 164.59,0 114.05,0 26.11,54.01 "
       id="polygon5-2"
       style="fill:#99cccc;fill-rule:evenodd" /><polygon
       class="cls-3"
       points="66.57,119.89 261.71,0 211.16,0 52.72,97.32 "
       id="polygon6-9"
       style="fill:#fe81b4;fill-rule:evenodd" /><path
       class="cls-6"
       d="M 169.08,90.78 A 428.91,428.91 0 0 1 222.54,0 H 0 V 115.35 C 53.85,95.84 110,86.84 169.08,90.78 Z"
       id="path6-1"
       style="fill:#ede2c7;fill-rule:evenodd" /><path
       class="cls-7"
       d="M 169.08,90.78 A 428.91,428.91 0 0 1 222.54,0 H 0 v 11.51 l 54.09,88 a 404.58,404.58 0 0 1 114.99,-8.73 z"
       id="path7-0"
       style="fill:#e6e6e6;fill-rule:evenodd" /><path
       class="cls-8"
       d="M 222.54,0 H 211.16 L 52.72,97.32 54.09,99.55 A 407.18,407.18 0 0 1 113.8,90.86 L 194.44,41.32 A 411,411 0 0 1 222.54,0 Z"
       id="path8-9"
       style="fill:#d8719f;fill-rule:evenodd" /><path
       class="cls-8"
       d="m 172.35,83.5 -11.14,6.85 c 2.62,0.13 5.24,0.25 7.87,0.43 q 1.61,-3.63 3.27,-7.28 z"
       id="path9-3"
       style="fill:#d8719f;fill-rule:evenodd" /><polygon
       class="cls-9"
       points="39.96,76.55 164.59,0 114.05,0 26.11,54.01 "
       id="polygon9-0"
       style="fill:#88b8b8;fill-rule:evenodd" /><path
       class="cls-10"
       d="M 133.4,93.54 76,0 H 0 v 106.84 a 405.09,405.09 0 0 1 133.4,-13.3 z"
       id="path10-0"
       style="fill:#53ccce;fill-rule:evenodd" /><path
       class="cls-11"
       d="m 76,0 57.4,93.54 A 427.12,427.12 0 0 1 189,0 Z"
       id="path11-3"
       style="fill:#fefefc;fill-rule:evenodd" /></g><g
     id="g39"
     inkscape:label="main"><g
       id="g38"
       inkscape:label="sponsor"
       style="display:inline"
       transform="matrix(3,0,0,3,284.45719,0)"><path
         id="path38"
         style="fill:#665b50;fill-opacity:1;stroke-width:16.9311;stroke-linecap:round;stroke-linejoin:round;stroke-miterlimit:7.6;paint-order:fill markers stroke"
         d="m 153.188,164.05424 c 0,0 63.63935,0 69.986,0 6.34665,0 9.15145,4.63365 9.15145,8.88545 0,4.2518 -2.80477,8.88546 -9.15145,8.88546 -6.34668,0 -69.98587,0 -69.98587,0 -6.04233,0 -9.15106,-4.63375 -9.15107,-8.88546 -1e-5,-4.25168 3.33404,-8.88545 9.15094,-8.88545 z"
         sodipodi:nodetypes="zzazzaz" /><text
         xml:space="preserve"
         style="font-size:8.09453px;line-height:0;font-family:'النيل';-inkscape-font-specification:'النيل';text-align:center;letter-spacing:0px;writing-mode:lr-tb;direction:ltr;text-anchor:middle;fill:#9e8d7d;fill-opacity:1;stroke:none;stroke-width:16.0616;stroke-linecap:round;stroke-linejoin:round;stroke-miterlimit:7.6;paint-order:fill markers stroke"
         x="185.98761"
         y="177.09593"
         id="text38"
         transform="scale(1.0118166,0.98832141)"
         inkscape:label="sponsor"><tspan
           sodipodi:role="line"
           id="tspan38"
           x="185.98761"
           y="177.09593"
           style="font-style:normal;font-variant:normal;font-weight:900;font-stretch:normal;font-size:8.09453px;font-family:Montserrat;-inkscape-font-specification:'Montserrat Heavy';text-align:center;letter-spacing:0px;text-anchor:middle;fill:#ffffff;fill-opacity:1;stroke-width:16.0616">Sponsor</tspan></text></g><path
       id="rect6"
       style="display:inline;fill:#665b50;fill-opacity:1;stroke-width:16.9311;stroke-linecap:round;stroke-linejoin:round;stroke-miterlimit:7.6;paint-order:fill markers stroke"
       d="m 153.188,164.05424 c 0,0 63.63935,0 69.986,0 6.34665,0 9.15145,4.63365 9.15145,8.88545 0,4.2518 -2.80477,8.88546 -9.15145,8.88546 -6.34668,0 -69.98587,0 -69.98587,0 -6.04233,0 -9.15106,-4.63375 -9.15107,-8.88546 -1e-5,-4.25168 3.33404,-8.88545 9.15094,-8.88545 z"
       sodipodi:nodetypes="zzazzaz"
       transform="scale(3)" /><text
       xml:space="preserve"
       style="display:inline;font-size:8.09453px;line-height:0;font-family:'النيل';-inkscape-font-specification:'النيل';text-align:start;letter-spacing:0px;writing-mode:lr-tb;direction:ltr;text-anchor:start;fill:#9e8d7d;fill-opacity:1;stroke:none;stroke-width:16.0616;stroke-linecap:round;stroke-linejoin:round;stroke-miterlimit:7.6;paint-order:fill markers stroke"
       x="167.37828"
       y="177.48042"
       id="text1"
       transform="scale(3.0354498,2.9649642)"
       inkscape:label="register"><tspan
         sodipodi:role="line"
         id="tspan1"
         x="167.37828"
         y="177.48042"
         style="font-style:normal;font-variant:normal;font-weight:900;font-stretch:normal;font-size:8.09453px;font-family:Montserrat;-inkscape-font-specification:'Montserrat Heavy';text-align:start;letter-spacing:0px;text-anchor:start;fill:#ffffff;fill-opacity:1;stroke-width:16.0616">Register</tspan></text><g
       id="g7"
       inkscape:label="register"
       style="display:inline"
       transform="scale(3)" /><text
       xml:space="preserve"
       style="font-style:normal;font-variant:normal;font-weight:600;font-stretch:normal;font-size:19.8186px;line-height:0;font-family:Montserrat;-inkscape-font-specification:'Montserrat Semi-Bold';text-align:center;letter-spacing:0px;writing-mode:lr-tb;direction:ltr;text-anchor:middle;fill:#9e8d7d;fill-opacity:1;stroke:none;stroke-width:44.943;stroke-linecap:round;stroke-linejoin:round;stroke-miterlimit:7.6;paint-order:fill markers stroke"
       x="699.18085"
       y="458.55344"
       id="text6"
       transform="scale(1.0082521,0.99181543)"
       inkscape:label="gc"><tspan
         sodipodi:role="line"
         id="tspan6"
         x="699.18085"
         y="458.55344"
         style="stroke-width:44.943">Ernest R. Graham University Center</tspan></text><text
       xml:space="preserve"
       style="font-style:normal;font-variant:normal;font-weight:600;font-stretch:normal;font-size:19.3753px;line-height:0;font-family:Montserrat;-inkscape-font-specification:'Montserrat Semi-Bold';text-align:center;letter-spacing:0px;writing-mode:lr-tb;direction:ltr;text-anchor:middle;fill:#9e8d7d;fill-opacity:1;stroke:none;stroke-width:43.9377;stroke-linecap:round;stroke-linejoin:round;stroke-miterlimit:7.6;paint-order:fill markers stroke"
       x="682.2655"
       y="446.95651"
       id="text5"
       transform="scale(1.0327643,0.96827514)"
       inkscape:label="fiu"><tspan
         sodipodi:role="line"
         id="tspan5"
         x="682.2655"
         y="446.95651"
         style="stroke-width:43.9377">Florida International University</tspan></text><text
       xml:space="preserve"
       style="font-style:normal;font-variant:normal;font-weight:900;font-stretch:normal;font-size:20.4792px;line-height:0;font-family:Montserrat;-inkscape-font-specification:'Montserrat Heavy';text-align:center;letter-spacing:0px;writing-mode:lr-tb;direction:ltr;text-anchor:middle;fill:#9e8d7d;fill-opacity:1;stroke:none;stroke-width:46.4412;stroke-linecap:round;stroke-linejoin:round;stroke-miterlimit:7.6;paint-order:fill markers stroke"
       x="723.63422"
       y="400.94647"
       id="text2"
       transform="scale(0.97520245,1.0254281)"
       inkscape:label="date"><tspan
         sodipodi:role="line"
         x="723.63422"
         y="400.94647"
         style="font-style:normal;font-variant:normal;font-weight:600;font-stretch:normal;font-size:20.4792px;font-family:Montserrat;-inkscape-font-specification:'Montserrat Semi-Bold';stroke-width:46.4412"
         id="tspan4">September 20-22, 2019</tspan></text><text
       xml:space="preserve"
       style="font-size:24.2836px;line-height:0;font-family:'النيل';-inkscape-font-specification:'النيل';text-align:start;letter-spacing:0px;writing-mode:lr-tb;direction:ltr;text-anchor:start;display:inline;fill:#9e8d7d;fill-opacity:1;stroke:none;stroke-width:48.1848;stroke-linecap:round;stroke-linejoin:round;stroke-miterlimit:7.6;paint-order:fill markers stroke"
       x="512.1001"
       y="369.36603"
       id="text7"
       transform="scale(1.0118166,0.98832141)"
       inkscape:label="largesthack"><tspan
         sodipodi:role="line"
         id="tspan7"
         x="512.1001"
         y="369.36603"
         style="font-style:normal;font-variant:normal;font-weight:900;font-stretch:normal;font-size:24.2836px;font-family:Montserrat;-inkscape-font-specification:'Montserrat Heavy';text-align:start;letter-spacing:0px;text-anchor:start;stroke-width:48.1848">Florida's Largest Hackathon</tspan></text><g
       id="Layer_1-2"
       data-name="Layer 1"
       transform="matrix(0.71590185,0,0,0.71590185,417.43233,167.26984)"
       inkscape:label="wordmark"><path
         class="cls-1"
         d="m 86.87,83.29 c 2.48,-0.89 6,-2.3 10.51,-4.26 4.51,-1.96 9.35,-4.3 14.5,-7 5.15,-2.7 10.33,-5.76 15.56,-9 a 110.78,110.78 0 0 0 13.7,-10 42,42 0 0 0 8.78,-10 q 2.93,-4.92 1.33,-9.18 Q 149.1,28.5 141.54,28 a 61.67,61.67 0 0 0 -16.63,1.33 108.22,108.22 0 0 0 -17.82,5.32 85,85 0 0 0 -13,6.12 q -18.66,11.41 -25.97,20.84 -7.31,9.43 -6,18 1.32,8.52 10.1,16.36 A 142.39,142.39 0 0 0 95.12,112 q 7.71,4.78 15.56,9.71 a 120.36,120.36 0 0 1 14.1,10.29 49,49 0 0 1 10,11.3 24.38,24.38 0 0 1 3.73,13.17 q 0,7.19 -4.66,15.56 -4.66,8.37 -15.29,18.22 a 91.9,91.9 0 0 1 -17.69,12.64 127.25,127.25 0 0 1 -21.87,9.54 127.88,127.88 0 0 1 -23.41,5.45 84.69,84.69 0 0 1 -22.21,0.27 49.47,49.47 0 0 1 -18.49,-6 A 29.08,29.08 0 0 1 2.82,199 28.12,28.12 0 0 1 0.29,182.77 a 39.17,39.17 0 0 1 6,-15.69 57.52,57.52 0 0 1 12.1,-13.43 67.52,67.52 0 0 1 15.83,-9.71 110.77,110.77 0 0 1 35,-8.65 q 18.22,-1.46 35.52,-1.46 -8.52,0.27 -17.43,0.66 -8.91,0.39 -17.82,1.6 A 168.84,168.84 0 0 0 51.93,139.41 99.1,99.1 0 0 0 35,145.27 62.82,62.82 0 0 0 20.51,154.58 48.78,48.78 0 0 0 10,167 a 33.77,33.77 0 0 0 -4.66,14.23 26.19,26.19 0 0 0 3.33,14.89 27,27 0 0 0 11.44,11.71 46.59,46.59 0 0 0 17,5.05 75.64,75.64 0 0 0 20.35,-0.66 122,122 0 0 0 21.28,-5.46 126.79,126.79 0 0 0 19.95,-9 74.05,74.05 0 0 0 16.09,-12 q 10.64,-10.38 13.57,-18.49 2.93,-8.11 0.4,-14.63 a 26.9,26.9 0 0 0 -9.16,-11.64 125.89,125.89 0 0 0 -15,-9.71 Q 96.22,126.64 87.3,122.11 A 99.31,99.31 0 0 1 71.48,112.27 Q 56.54,101.38 53,89.67 A 32.59,32.59 0 0 1 54.33,66.53 Q 59.21,55.1 71.05,44.72 A 130.12,130.12 0 0 1 98.84,26.36 105.42,105.42 0 0 1 109.22,22 a 99,99 0 0 1 12.63,-3.73 83.58,83.58 0 0 1 13,-1.86 34.6,34.6 0 0 1 12,1.2 18.29,18.29 0 0 1 8.91,5.58 q 3.45,4 4,10.91 a 25.38,25.38 0 0 1 -3.06,14.1 47.91,47.91 0 0 1 -9.58,12.23 87.84,87.84 0 0 1 -13.7,10.38 q -7.71,4.78 -15.69,8.77 a 59.2,59.2 0 0 1 -5.45,2.66 90.91,90.91 0 0 1 -11.18,4.26 32.73,32.73 0 0 1 -10.5,1.73 q -4.53,-0.15 -3.73,-4.94 z"
         id="path1-05"
         style="fill:#665b50" /><path
         class="cls-1"
         d="m 137.14,185.43 q 3.74,-10.63 9.58,-24.74 5.84,-14.11 11.17,-27.13 6.39,-16 11.31,-32.45 4.92,-16.45 10,-32.58 5.06,-16.1 10.91,-31.13 a 160.28,160.28 0 0 1 14.33,-28.33 20.34,20.34 0 0 1 5.85,-6.65 9,9 0 0 1 5.19,-1.72 4.07,4.07 0 0 1 3.46,2.39 11.12,11.12 0 0 1 0.93,6 q -0.8,7.18 -5.45,21 -4.65,13.82 -11.42,30.72 -6.78,16.89 -15.3,35.51 -8.52,18.62 -16.77,35.68 -1.34,2.92 -3.6,8.51 -2.26,5.59 -5.18,12.49 a 93.17,93.17 0 0 1 8.78,-7.31 29,29 0 0 1 8.37,-4.53 10.37,10.37 0 0 1 6.92,0 q 3.06,1.2 4.66,6 a 18.76,18.76 0 0 1 0.13,10.64 99.3,99.3 0 0 1 -4,12.63 q -2.53,6.53 -5.19,12.77 a 64.23,64.23 0 0 0 -3.72,11 62.29,62.29 0 0 0 8,-5.59 q 5,-4 10.77,-9.17 5.77,-5.17 11.84,-11 6.12,-5.85 11.44,-10.91 5.32,-5.06 9.31,-8.91 4,-3.85 5.58,-5.19 -2.13,2.4 -6.52,7.72 -4.39,5.32 -10,11.84 -5.58,6.51 -11.7,13.43 -6.12,6.92 -11.82,12.87 a 103.2,103.2 0 0 1 -10.64,9.84 c -3.29,2.57 -5.81,4 -7.58,4.39 -3.37,0.71 -5.55,0.09 -6.52,-1.86 -0.97,-1.95 -1.24,-4.61 -0.8,-8 a 64.13,64.13 0 0 1 2.8,-11.57 c 1.41,-4.35 2.88,-8.6 4.38,-12.77 1.5,-4.17 2.8,-7.93 3.86,-11.31 1.06,-3.38 1.51,-5.85 1.33,-7.44 -1.77,0.35 -4.17,1.77 -7.18,4.25 -3.01,2.48 -6.12,5.28 -9.31,8.38 -3.19,3.1 -6.21,6.17 -9,9.18 -2.79,3.01 -4.79,5 -5.86,6.12 q -0.52,1.06 -0.93,1.86 a 4.77,4.77 0 0 1 -0.93,1.33 11.76,11.76 0 0 1 -5.05,4.12 7.74,7.74 0 0 1 -6.43,-0.38 z m 38.57,-82.72 q 5.06,-9.58 11,-23 5.94,-13.42 11.31,-26.6 5.31,-13.17 9.17,-24.21 3.86,-11.04 4.66,-16.09 -2.92,5.58 -7.71,17 -4.79,11.42 -10,24.61 Q 189,67.6 184,80.63 q -5,13.03 -8.29,22.08 z"
         id="path2-2"
         style="fill:#665b50" /><path
         class="cls-1"
         d="m 294.35,141.54 q -1.07,1.34 -4.13,4.52 -3.06,3.18 -7.58,7.32 -4.51,4.13 -10.1,8.91 -5.59,4.78 -11.44,8.91 a 102.53,102.53 0 0 1 -11.71,7.18 35.93,35.93 0 0 1 -10.9,3.86 q -8.52,1.33 -12.11,-3.46 -3.59,-4.79 -3.32,-12.23 a 40.64,40.64 0 0 1 4.12,-15.7 A 38.4,38.4 0 0 1 238,137 a 51.64,51.64 0 0 1 9.31,-5.72 27.5,27.5 0 0 1 9,-2.66 12.35,12.35 0 0 1 7.18,1.2 c 1.95,1.06 3.19,3 3.73,5.85 a 13.29,13.29 0 0 1 -2.93,10.37 40.5,40.5 0 0 1 -9.44,8.65 71.74,71.74 0 0 1 -12,6.52 q -6.25,2.66 -10.24,4 c -0.36,3 0,5.41 1.06,7.18 1.06,1.77 3.19,2.39 6.38,1.86 a 52.06,52.06 0 0 0 13.84,-4.65 141.44,141.44 0 0 0 14.89,-8.38 q 7.44,-4.8 14.23,-10.11 6.79,-5.31 11.34,-9.57 z M 238,152.45 a 57.68,57.68 0 0 0 10.9,-5.59 17.8,17.8 0 0 0 7.18,-8 23.18,23.18 0 0 0 -9.71,4.79 46.64,46.64 0 0 0 -8.37,8.8 z"
         id="path3-3"
         style="fill:#665b50" /><path
         class="cls-1"
         d="m 333.71,9.07 q 2.66,-4.78 5.59,-6.65 a 9,9 0 0 1 5.19,-1.72 4,4 0 0 1 3.45,2.39 11,11 0 0 1 0.93,6 q -0.8,7.18 -5.45,21 -4.65,13.82 -11.57,30.72 -6.92,16.89 -15.43,35.51 -8.51,18.62 -16.76,35.68 c -0.35,0.89 -0.93,2.26 -1.72,4.12 -0.79,1.86 -1.65,3.95 -2.53,6.25 a 142,142 0 0 0 -3.59,15.3 56.09,56.09 0 0 0 -0.67,15.82 33.71,33.71 0 0 0 4.52,14 q 3.74,6.25 12,9.71 a 26.88,26.88 0 0 0 5.46,1.73 c 1.5,0.26 3.5,0.49 6,0.66 a 69,69 0 0 1 -8.11,0.53 27.14,27.14 0 0 1 -8.38,-1.59 q -12,-4 -16.36,-12.11 a 39.88,39.88 0 0 1 -4.65,-18.22 q -0.27,-9 2.52,-23 2.79,-14 7.45,-29.92 4.65,-16 10.64,-32.59 5.99,-16.59 11.76,-31.32 5.85,-14.62 11,-25.8 a 144.29,144.29 0 0 1 8.71,-16.5 z m -29,93.64 q 5,-9.58 11,-23 6,-13.42 11.3,-26.6 5.32,-13.17 9.05,-24.21 a 112,112 0 0 0 4.52,-16.09 q -2.94,5.58 -7.58,17 -4.64,11.42 -10,24.61 -5.32,13.17 -10.24,26.2 -4.92,13.03 -8.04,22.09 z"
         id="path4-8"
         style="fill:#665b50" /><path
         class="cls-1"
         d="m 372.55,9.07 q 2.65,-4.78 5.58,-6.65 a 9,9 0 0 1 5.19,-1.72 4.07,4.07 0 0 1 3.46,2.39 11.12,11.12 0 0 1 0.93,6 q -0.79,7.18 -5.45,21 -4.66,13.82 -11.57,30.72 -6.93,16.89 -15.43,35.51 -8.5,18.62 -16.76,35.68 c -0.36,0.89 -0.93,2.26 -1.73,4.12 -0.8,1.86 -1.64,3.95 -2.53,6.25 a 142,142 0 0 0 -3.59,15.3 56.45,56.45 0 0 0 -0.66,15.82 33.57,33.57 0 0 0 4.52,14 q 3.72,6.25 12,9.71 a 26.81,26.81 0 0 0 5.45,1.73 c 1.51,0.26 3.5,0.49 6,0.66 a 69,69 0 0 1 -8.12,0.53 27.09,27.09 0 0 1 -8.37,-1.59 q -12,-4 -16.36,-12.11 a 39.89,39.89 0 0 1 -4.66,-18.22 q -0.26,-9 2.53,-23 2.79,-14 7.45,-29.92 Q 335,99.25 341,82.62 q 6,-16.63 11.83,-31.25 5.85,-14.62 11,-25.8 a 142.42,142.42 0 0 1 8.72,-16.5 z m -29,93.64 q 5.06,-9.58 11,-23 5.94,-13.42 11.35,-26.61 5.31,-13.17 9,-24.21 a 112,112 0 0 0 4.52,-16.09 q -2.93,5.58 -7.58,17 -4.65,11.42 -10,24.61 -5.32,13.17 -10.24,26.2 -4.92,13.03 -8.05,22.1 z"
         id="path5-7"
         style="fill:#665b50" /><path
         class="cls-1"
         d="M 455.8,28.49 Q 450.48,52.7 443.7,74 q -6.78,21.3 -14.76,42 23.67,1.59 45.48,2.26 21.81,0.67 45.76,-0.4 8.24,-25.28 15.82,-50 7.58,-24.72 13.7,-50.27 c 4.26,-1.07 7.49,-0.44 9.71,1.86 2.22,2.3 2.88,5.5 2,9.57 Q 555,53 547.84,74.51 q -7.16,21.51 -15.16,42.56 15.42,-0.79 31,-2.26 15.58,-1.47 32.05,-3.06 -17.55,2.93 -33.38,5 -15.83,2.07 -31,4 -5.33,13.3 -11,28.87 -5.67,15.57 -12.1,31.65 -6.43,16.13 -13.25,32.23 -6.82,16.1 -14,30.45 4.53,-15.42 9.71,-31.92 5.18,-16.5 10.29,-32.58 5.06,-16.09 9.71,-30.86 4.65,-14.77 8.38,-26.73 -24.21,2.39 -47.08,3.46 -22.87,1.07 -46.82,1.06 c -0.89,2 -1.72,4 -2.52,6 -0.8,2 -1.64,4 -2.53,6 q 7.18,4.53 15,9.84 7.82,5.31 15,10.78 7.18,5.44 12.9,10.5 a 54.55,54.55 0 0 1 8.51,9.05 q 2.79,4 2.13,6.65 c -0.45,1.77 -2.62,2.84 -6.52,3.19 q -6.92,-9 -13,-15.83 a 156.81,156.81 0 0 0 -12.1,-12.1 109.16,109.16 0 0 0 -12,-9.31 q -6,-4 -12.11,-7.45 -9,21 -19,42.56 -10,21.56 -21.14,45.49 5.83,-15.71 11.3,-31.13 5.47,-15.42 10.24,-31.12 2.4,-7.18 4.92,-14.63 2.52,-7.45 4.92,-15.16 -9,-4.25 -19.15,-7.85 -10.15,-3.6 -22.34,-8.64 h -0.53 q -6.14,-2.66 -5.32,-6 0.82,-3.34 6.38,-3.59 3.19,-0.26 8.38,-0.26 5.19,0 11.7,0.26 6.53,0.27 13.84,0.67 c 4.87,0.26 9.79,0.58 14.76,0.93 q 7.71,-25 14.63,-49.34 6.92,-24.34 12.5,-48.55 a 4,4 0 0 1 3.33,-0.27 12,12 0 0 1 4.38,2.13 12.68,12.68 0 0 1 3.46,4 6.8,6.8 0 0 1 0.59,5.29 z M 411.12,133 a 29,29 0 0 0 2.39,-6.92 c -2.49,0 -5.05,0 -7.71,-0.13 -2.66,-0.13 -5.32,-0.22 -8,-0.4 q 1.32,0.54 4.92,2.53 3.6,1.99 8.4,4.92 z"
         id="path6"
         style="fill:#665b50" /><path
         class="cls-1"
         d="m 648.92,141.54 q -2.67,3.19 -8.92,9.45 -6.25,6.26 -13.69,12.76 a 150.41,150.41 0 0 1 -15.17,11.71 q -7.71,5.19 -13.56,6.25 -5.85,1.06 -8.65,-3.33 -2.79,-4.38 -0.13,-17.38 -4.53,4.53 -8.91,8.51 -4.38,3.98 -8.38,7.05 a 55.37,55.37 0 0 1 -7.18,4.79 9.3,9.3 0 0 1 -5.32,1.46 q -6.39,-0.53 -7.45,-6.38 -1.06,-5.85 1.33,-13.43 a 64.56,64.56 0 0 1 7.45,-15.43 52.11,52.11 0 0 1 11,-12.64 q 6,-4.78 11.83,-4.65 5.83,0.13 9.85,8.11 c 1.41,-1.95 3.1,-4.21 5.05,-6.78 a 16.28,16.28 0 0 1 5.85,-5.19 3.72,3.72 0 0 1 2.4,-0.27 3.17,3.17 0 0 1 2.12,2.13 c 0.36,0.53 0,2.18 -1.19,4.92 -1.19,2.74 -2.53,6 -4.13,9.58 -1.6,3.58 -3.15,7.45 -4.65,11.44 a 50.89,50.89 0 0 0 -2.93,10.64 q -0.66,4.65 0.93,7.05 c 1.07,1.59 3.37,1.77 6.92,0.53 a 57.28,57.28 0 0 0 11.44,-5.72 q 6.64,-4.12 13.16,-8.78 6.52,-4.66 12.24,-9.18 5.77,-4.55 8.69,-7.22 z m -63,5.06 q -1.86,-8.79 -5.45,-7.85 -3.59,0.94 -7.31,6.38 a 73.81,73.81 0 0 0 -6.92,13 58.17,58.17 0 0 0 -4,12.37 c 1.6,-1.07 3.81,-2.62 6.65,-4.66 a 95.25,95.25 0 0 0 8.25,-6.65 70.09,70.09 0 0 0 6.78,-6.91 c 1.82,-2.18 2.49,-4.09 1.95,-5.68 z"
         id="path7"
         style="fill:#665b50" /><path
         class="cls-1"
         d="m 677.11,141.54 q -5.85,-3.45 -11.44,-2.26 a 20.18,20.18 0 0 0 -9.71,5.06 30.22,30.22 0 0 0 -6.65,9.17 22.18,22.18 0 0 0 -2.39,10.11 11.1,11.1 0 0 0 3.19,7.85 q 3.06,3.06 10,2.52 7.71,-1.05 20.74,-8.37 13.03,-7.32 33.25,-22.75 -4.79,4.78 -12.1,11.84 a 198.61,198.61 0 0 1 -15.69,13.57 117.35,117.35 0 0 1 -16.89,11 q -8.52,4.53 -15.7,3.73 -7.71,-0.79 -11.57,-5.45 a 19.47,19.47 0 0 1 -4.39,-11 33.27,33.27 0 0 1 1.86,-13.44 40.71,40.71 0 0 1 6.92,-12.63 30.81,30.81 0 0 1 11,-8.65 23.49,23.49 0 0 1 14.23,-1.73 c 3.19,0.54 5.28,1.43 6.25,2.66 a 6,6 0 0 1 1.46,3.73 5.48,5.48 0 0 1 -1.06,3.32 19.23,19.23 0 0 1 -1.31,1.72 z"
         id="path8"
         style="fill:#665b50" /><path
         class="cls-1"
         d="m 683.49,184.63 c 1.25,-3.36 2.8,-7.18 4.66,-11.43 1.86,-4.25 3.85,-8.65 6,-13.17 2.15,-4.52 4.22,-9.09 6.25,-13.7 2.03,-4.61 4,-9 6,-13.3 q 6.92,-16 12.5,-32.58 5.58,-16.58 11.31,-32.72 5.72,-16.1 12.23,-31.12 A 174,174 0 0 1 757.74,8.54 23.5,23.5 0 0 1 764,1.76 8.35,8.35 0 0 1 769.28,0 a 4.39,4.39 0 0 1 3.46,2.53 9.86,9.86 0 0 1 0.66,6 q -1.06,7.19 -6.25,20.88 -5.19,13.69 -12.77,30.74 -7.57,17 -16.89,35.51 -9.32,18.51 -18.35,35.24 a 30.49,30.49 0 0 1 6.91,-2.26 q 3.47,-0.66 7.18,-1.2 c 3.9,-0.17 6.7,0.4 8.38,1.73 a 6,6 0 0 1 2.4,5.19 14.33,14.33 0 0 1 -2.66,7 32.46,32.46 0 0 1 -6.79,7.31 66,66 0 0 1 -12.76,8.38 101.15,101.15 0 0 0 -12.24,7.05 l 8,6 q 5.85,4.38 12.37,9.17 6.52,4.79 12,8.65 c 3.63,2.57 5.81,4.12 6.52,4.65 q -4.53,-2.66 -9.71,-5.32 -5.18,-2.66 -10.51,-5.45 -5.32,-2.79 -10.24,-5.45 -4.92,-2.66 -8.65,-5.06 a 22.59,22.59 0 0 1 -4.12,-3.59 9.6,9.6 0 0 1 -1.73,-3.06 c -0.88,-0.17 -1.86,1 -2.92,3.46 -1.06,2.46 -2.4,5.19 -4,8.12 a 30.27,30.27 0 0 1 -5.59,7.44 c -2.17,2.08 -4.65,2.4 -7.49,0.97 z m 24.21,-29 c 1.77,-1.24 3.86,-2.57 6.25,-4 2.39,-1.43 4.79,-2.88 7.18,-4.39 2.39,-1.51 4.7,-3.06 6.92,-4.65 a 21.75,21.75 0 0 0 5.18,-5.06 q -7.17,0 -14.23,5.32 a 42,42 0 0 0 -11.3,12.79 z M 725,101.91 q 5.58,-9.59 12.23,-22.88 6.65,-13.29 12.51,-26.46 5.85,-13.17 10.1,-24.08 4.25,-10.91 5.06,-16 -3.2,5.6 -8.38,16.76 -5.18,11.16 -10.92,24.38 -5.72,13.17 -11.3,26.2 -5.58,13.03 -9.3,22.08 z"
         id="path9"
         style="fill:#665b50" /><path
         class="cls-1"
         d="m 776.06,139.15 q -2.4,-2.13 -6.78,-1.73 a 16.89,16.89 0 0 0 -7.85,2.66 9.87,9.87 0 0 0 -4.43,6.12 q -0.93,3.86 3.59,8.38 a 8.82,8.82 0 0 1 0.93,1.06 9.94,9.94 0 0 0 0.93,1.06 c 4.43,-1.23 8.42,-2.26 12,-3 3.58,-0.74 6.92,-1.64 10.11,-2.53 3.19,-0.89 6.43,-2 9.71,-3.19 a 86.9,86.9 0 0 0 10.77,-5.06 109.76,109.76 0 0 1 -11.43,6.79 q -5.05,2.52 -9.45,4.25 c -2.92,1.16 -5.85,2.18 -8.77,3.06 -2.92,0.88 -6,1.86 -9.18,2.93 1.77,1.59 3.59,3.37 5.45,5.32 a 23.47,23.47 0 0 1 4.39,6.38 17.64,17.64 0 0 1 1.6,7.45 15.84,15.84 0 0 1 -2.93,8.51 q -4.77,7.39 -12.72,8.2 a 26.16,26.16 0 0 1 -14.76,-2.66 23.25,23.25 0 0 1 -10.24,-10 q -3.45,-6.51 0.53,-13.7 a 12,12 0 0 1 5.32,-5.18 70,70 0 0 1 9.58,-4.39 q -4.8,-6.12 -4.66,-11.71 a 16.66,16.66 0 0 1 3.33,-9.84 21.17,21.17 0 0 1 8.64,-6.65 24.33,24.33 0 0 1 11,-2.13 q 5.58,0.54 7.71,2.13 c 1.42,1.06 2.13,2.13 2.13,3.19 a 3.93,3.93 0 0 1 -1.46,2.93 4.52,4.52 0 0 1 -3.06,1.35 z m -19.42,24.2 a 4.44,4.44 0 0 1 -1.33,0.67 2.33,2.33 0 0 0 -1.06,0.66 q -8.78,4.26 -10.38,8.65 c -1.06,2.93 -0.75,5.45 0.94,7.58 1.69,2.13 4.29,3.64 7.84,4.52 A 17.25,17.25 0 0 0 763,184.9 c 2.83,-1.24 4.39,-2.83 4.65,-4.79 a 9.39,9.39 0 0 0 -1.33,-6 25.32,25.32 0 0 0 -4.65,-5.85 c -1.93,-1.85 -3.61,-3.48 -5.03,-4.91 z"
         id="path10"
         style="fill:#665b50" /></g></g></svg>
