<?xml version="1.0" encoding="UTF-8" standalone="no"?>
<!-- Generator: Adobe Illustrator 15.0.1, SVG Export Plug-In . SVG Version: 6.00 Build 0)  -->

<svg
   version="1.1"
   id="svg2"
   x="0px"
   y="0px"
   width="81.800003"
   height="81.799995"
   viewBox="0 0 81.800003 81.799995"
   enable-background="new 0 0 256 256"
   xml:space="preserve"
   xmlns="http://www.w3.org/2000/svg"
   xmlns:svg="http://www.w3.org/2000/svg"><defs
   id="defs2" />



<g
   id="g1"
   transform="translate(27.6,-8.3999999)"
   style="display:inline"><path
     d="M 30.196484,13.8 H -11.479297 C -17.400527,13.8 -22.2,18.598993 -22.2,24.520703 v 49.556636 c 0,5.92171 4.799473,10.72266 10.720703,10.72266 h 49.558594 c 5.921219,0 10.720703,-4.80125 10.720703,-10.72266 v -41.67773 z"
     style="display:inline;fill:none;fill-opacity:1;stroke:#00ebbe;stroke-width:10.8;stroke-linecap:round;stroke-linejoin:round;stroke-dasharray:none;stroke-opacity:1;paint-order:markers fill stroke"
     id="path1-7" /><path
     id="rect1942"
     style="display:inline;fill:#68b8d2;fill-opacity:1;stroke:#260257;stroke-width:3.6;stroke-linecap:round;stroke-linejoin:round;stroke-dasharray:none;stroke-opacity:1;paint-order:normal"
     d="M 30.196484,13.8 H -11.479297 C -17.400527,13.8 -22.2,18.598993 -22.2,24.520703 v 49.55664 C -22.2,79.999053 -17.400527,84.8 -11.479297,84.8 H 38.079297 C 44.000516,84.8 48.8,79.998753 48.8,74.077343 V 32.399609 Z" /><path
     id="path1"
     style="display:inline;fill:#554fa3;fill-opacity:1;stroke:#260257;stroke-width:3.6;stroke-linecap:round;stroke-linejoin:round;stroke-dasharray:none;stroke-opacity:1;paint-order:normal"
     d="M 48.849341,32.399355 30.245825,13.799746 v 7.878906 c -3e-4,5.92171 4.799794,10.720703 10.720703,10.720703 z" /></g><text
   xml:space="preserve"
   style="font-style:normal;font-variant:normal;font-weight:normal;font-stretch:normal;font-size:36.0272px;line-height:0;font-family:Arial;-inkscape-font-specification:Arial;text-align:start;letter-spacing:0px;writing-mode:lr-tb;direction:ltr;text-anchor:start;display:inline;fill:#00ebbe;fill-opacity:1;stroke:#00ebbe;stroke-width:1.27955;stroke-linecap:round;stroke-linejoin:round;stroke-miterlimit:0;stroke-dasharray:none;stroke-opacity:1;paint-order:normal"
   x="11.144138"
   y="57.893925"
   id="text1"><tspan
     id="tspan1"
     x="11.144138"
     y="57.893925"
     style="font-style:normal;font-variant:normal;font-weight:bold;font-stretch:normal;font-size:36.0272px;font-family:Arial;-inkscape-font-specification:'Arial Bold';letter-spacing:0px;fill:#00ebbe;fill-opacity:1;stroke:#00ebbe;stroke-width:1.27955;stroke-dasharray:none;stroke-opacity:1">pdf</tspan></text></svg>
