<?xml version="1.0" encoding="UTF-8" standalone="no"?>
<!-- Generator: Adobe Illustrator 15.0.1, SVG Export Plug-In . SVG Version: 6.00 Build 0)  -->

<svg
   version="1.1"
   id="svg2"
   x="0px"
   y="0px"
   width="81.7043"
   height="93.450394"
   viewBox="0 0 81.7043 93.450393"
   enable-background="new 0 0 256 256"
   xml:space="preserve"
   xmlns="http://www.w3.org/2000/svg"
   xmlns:svg="http://www.w3.org/2000/svg"><defs
   id="defs2" />



<g
   id="g15"
   style="display:inline"
   transform="translate(-0.0472655,-0.6742187)"><path
     id="path15"
     style="display:inline;fill:#68b8d2;stroke:#00ebbe;stroke-width:14.8;stroke-linecap:round;stroke-linejoin:round;stroke-dasharray:none;stroke-opacity:1;paint-order:stroke markers fill"
     d="m 16.304688,8.0742188 c -4.911941,0 -8.8574224,4.6370632 -8.8574224,10.4121092 v 57.828125 c 0,5.775033 3.9454094,10.410156 8.8574224,10.410156 h 49.191406 c 4.911932,0 8.855468,-4.635531 8.855468,-10.410156 v -49.3125 L 55.425781,8.0742188 Z" /><path
     d="M 74.351562,27.001953 55.425781,8.0742188 m 0,0 H 16.304687 c -4.911941,0 -8.8574214,4.6370632 -8.8574214,10.4121092 v 57.828125 c 0,5.775033 3.9454094,10.410156 8.8574214,10.410156 h 49.191407 c 4.911932,0 8.855468,-4.635531 8.855468,-10.410156 v -49.3125"
     style="display:inline;fill:#68b8d2;stroke:#260257;stroke-width:7.4;stroke-linecap:round;stroke-linejoin:round;stroke-dasharray:none;paint-order:stroke markers fill"
     id="path13" /><path
     d="m 55.425781,8.0742182 v 8.5156248 c -2.48e-4,5.774918 3.942,10.41211 8.853515,10.41211 h 10.072266 m 0,0 L 55.425781,8.0742182"
     style="display:inline;fill:#544fa3;stroke:#260257;stroke-width:7.4;stroke-linecap:round;stroke-linejoin:round;stroke-miterlimit:7.6;stroke-dasharray:none;stroke-opacity:1;paint-order:stroke markers fill"
     id="path14" /></g><text
   xml:space="preserve"
   style="font-style:normal;font-variant:normal;font-weight:normal;font-stretch:normal;font-size:36.0272px;line-height:0;font-family:Arial;-inkscape-font-specification:Arial;text-align:start;letter-spacing:-2.88541px;writing-mode:lr-tb;direction:ltr;text-anchor:start;display:inline;fill:#00ebbe;fill-opacity:1;stroke:#00ebbe;stroke-width:1.27955;stroke-linecap:round;stroke-linejoin:round;stroke-miterlimit:0;stroke-dasharray:none;stroke-opacity:1;paint-order:normal"
   x="7.2357807"
   y="66.335968"
   id="text1"><tspan
     id="tspan1"
     x="7.2357807"
     y="66.335968"
     style="font-style:normal;font-variant:normal;font-weight:bold;font-stretch:normal;font-size:36.0272px;font-family:Arial;-inkscape-font-specification:'Arial Bold';fill:#00ebbe;fill-opacity:1;stroke:#00ebbe;stroke-width:1.27955;stroke-dasharray:none;stroke-opacity:1">PDF</tspan></text></svg>
