<?xml version="1.0" encoding="UTF-8" standalone="no"?>
<!-- Created with Inkscape (http://www.inkscape.org/) -->

<svg
   width="5.1329732mm"
   height="5.6444445mm"
   viewBox="0 0 5.1329731 5.6444445"
   version="1.1"
   id="svg1"
   xmlns="http://www.w3.org/2000/svg"
   xmlns:svg="http://www.w3.org/2000/svg">
  <defs
     id="defs1" />
  <path
     id="path16"
     style="fill:none;stroke:#260257;stroke-width:0.48298;stroke-linecap:round;stroke-linejoin:round;stroke-miterlimit:0;stroke-dasharray:none;stroke-opacity:1;paint-order:normal"
     d="m 2.5378659,0.48281424 c 0,0 -0.1497722,1.39122496 -0.5462836,1.81106536 C 1.595071,2.71372 0.48204928,2.8373552 0.48204928,2.8373552 c 0,0 1.11528712,0.0977 1.50953302,0.5130572 0.3942459,0.4153576 0.5462836,1.8112212 0.5462836,1.8112212 0,0 0.1324114,-1.3971939 0.546439,-1.8112212 0.414028,-0.4140273 1.566626,-0.5130572 1.566626,-0.5130572 0,0 -1.152598,-0.1294477 -1.566626,-0.5434756 C 2.6702785,1.8798514 2.5378659,0.48281424 2.5378659,0.48281424 Z m 0.00157,-0.24131939 c -0.123818,-7.93e-4 -0.2281783,0.0921815 -0.2416314,0.21526874 0,0 -0.036361,0.33674623 -0.1202699,0.72271021 C 2.0936252,1.5654378 1.9333579,2.0040608 1.8161011,2.1282163 1.6871617,2.2647419 1.3383205,2.4101681 1.0283425,2.4890254 0.71836448,2.5678827 0.45538438,2.5974397 0.45538438,2.5974397 c -0.288667,0.033224 -0.2836101,0.4541755 0.00577,0.480455 0,0 0.2633702,0.023551 0.57311422,0.095623 0.309744,0.072071 0.657098,0.2109564 0.7824549,0.3430261 0.114802,0.1209494 0.2753543,0.5601907 0.3595613,0.9468704 0.084207,0.3866797 0.1215178,0.7245823 0.1215178,0.7245823 0.031933,0.2886795 0.4526482,0.2856744 0.4804548,-0.00343 0,0 0.032117,-0.3377569 0.1137175,-0.7234902 0.0816,-0.3857334 0.24324,-0.8196293 0.363305,-0.9396948 0.13459,-0.1345897 0.498405,-0.2748596 0.820673,-0.3473941 0.322268,-0.072535 0.595421,-0.096091 0.595421,-0.096091 0.289488,-0.025758 0.29523,-0.4468144 0.0066,-0.480455 0,0 -0.274259,-0.030811 -0.597293,-0.1107542 C 3.7575929,2.4067429 3.3919559,2.2595957 3.2552719,2.1229125 3.1351899,2.0028294 2.9735679,1.5687312 2.8919669,1.1830617 2.8103659,0.7973921 2.7782494,0.4601954 2.7782494,0.4601954 2.7665453,0.33681735 2.663355,0.24232169 2.5394259,0.24149485 Z m -0.00157,0.24131939 c 0,0 0.1324126,1.39703716 0.546439,1.81106536 0.414028,0.4140279 1.566626,0.5434756 1.566626,0.5434756 0,0 -1.152598,0.09903 -1.566626,0.5130572 -0.4140276,0.4140273 -0.546439,1.8112212 -0.546439,1.8112212 0,0 -0.1520377,-1.3958636 -0.5462836,-1.8112212 C 1.5973364,2.9350548 0.48204928,2.8373552 0.48204928,2.8373552 c 0,0 1.11302172,-0.1236352 1.50953302,-0.5434756 C 2.3880937,1.8740392 2.5378659,0.48281424 2.5378659,0.48281424 Z" />
  <path
     id="path3"
     style="baseline-shift:baseline;display:inline;overflow:visible;fill:#00ebbe;stroke:#68b8d2;stroke-width:0.48298;stroke-linecap:round;stroke-linejoin:round;stroke-miterlimit:0;stroke-dasharray:none;stroke-opacity:1;paint-order:stroke markers fill;enable-background:accumulate;stop-color:#000000;stop-opacity:1"
     d="m 0.48206148,2.8373643 c 0,0 1.11295182,-0.1236464 1.50946322,-0.5434869 0.3965114,-0.4198404 0.5463427,-1.81105126 0.5463427,-1.81105126 0,0 0.1323734,1.39702316 0.5464005,1.81105126 0.414027,0.4140279 1.566639,0.5434869 1.566639,0.5434869 0,0 -1.152612,0.099005 -1.566639,0.5130324 -0.4140283,0.4140273 -0.5464005,1.8113006 -0.5464005,1.8113006 0,0 -0.1520968,-1.395943 -0.5463427,-1.8113006 C 1.5972788,2.9350391 0.48206148,2.8373643 0.48206148,2.8373643 Z" />
</svg>
