<?xml version="1.0" encoding="UTF-8" standalone="no"?>
<!-- Created with Inkscape (http://www.inkscape.org/) -->

<svg
   width="4.4913521mm"
   height="4.93889mm"
   viewBox="0 0 4.491352 4.93889"
   version="1.1"
   id="svg1"
   xmlns="http://www.w3.org/2000/svg"
   xmlns:svg="http://www.w3.org/2000/svg">
  <defs
     id="defs1" />
  <path
     id="path16"
     style="fill:none;stroke:#260257;stroke-width:0.422608;stroke-linecap:round;stroke-linejoin:round;stroke-miterlimit:0;stroke-dasharray:none;stroke-opacity:1;paint-order:normal"
     d="m 2.2206328,0.42246269 c 0,0 -0.1310507,1.21732181 -0.4779981,1.58468211 -0.3469474,0.3673603 -1.32084137,0.4755411 -1.32084137,0.4755411 0,0 0.97587617,0.085487 1.32084137,0.4489251 0.3449651,0.3634379 0.4779981,1.5848185 0.4779981,1.5848185 0,0 0.11586,-1.2225447 0.4781341,-1.5848185 0.3622745,-0.3622739 1.3707977,-0.4489251 1.3707977,-0.4489251 0,0 -1.0085232,-0.1132667 -1.3707977,-0.4755411 C 2.3364938,1.6448701 2.2206328,0.42246269 2.2206328,0.42246269 Z m 0.00137,-0.21115446 c -0.108337,-6.9388e-4 -0.1996523,0.0806588 -0.2114237,0.18836014 0,0 -0.031816,0.29465294 -0.1052362,0.63237133 -0.073421,0.3377185 -0.2136546,0.7215137 -0.3162543,0.8301497 -0.112822,0.1194599 -0.418058,0.2467078 -0.68928872,0.315708 -0.27123076,0.069 -0.50133834,0.094863 -0.50133834,0.094863 -0.25258362,0.029071 -0.24815883,0.3974035 0.005049,0.4203981 0,0 0.23044892,0.020607 0.50147493,0.08367 0.27102593,0.063062 0.57496063,0.1845869 0.68464793,0.3001478 0.1004518,0.1058308 0.240935,0.4901669 0.3146161,0.8285116 0.073681,0.3383447 0.1063282,0.6340095 0.1063282,0.6340095 0.027941,0.2525946 0.3960672,0.2499651 0.420398,-0.003 0,0 0.028102,-0.2955373 0.099503,-0.6330539 C 2.6018782,3.5659251 2.7433132,3.1862662 2.84837,3.0812089 2.9661363,2.9634429 3.2844744,2.8407068 3.5664589,2.7772391 c 0.2819845,-0.063468 0.5209933,-0.08408 0.5209933,-0.08408 0.253302,-0.022538 0.2583263,-0.3909626 0.00577,-0.4203981 0,0 -0.2399766,-0.02696 -0.5226313,-0.09691 C 3.2878939,2.1059002 2.9679615,1.9771464 2.848363,1.8575486 2.7432913,1.7524759 2.601872,1.37264 2.5304712,1.0351792 2.4590703,0.69771831 2.4309684,0.4026712 2.4309684,0.4026712 2.4207273,0.29471541 2.3304358,0.21203171 2.2219978,0.21130823 Z m -0.00137,0.21115446 c 0,0 0.115861,1.22240741 0.4781341,1.58468211 0.3622745,0.3622744 1.3707977,0.4755411 1.3707977,0.4755411 0,0 -1.0085232,0.086651 -1.3707977,0.4489251 -0.3622741,0.3622738 -0.4781341,1.5848185 -0.4781341,1.5848185 0,0 -0.133033,-1.2213806 -0.4779981,-1.5848185 C 1.3976695,2.5681731 0.42179333,2.4826859 0.42179333,2.4826859 c 0,0 0.97389397,-0.1081808 1.32084137,-0.4755411 C 2.0895821,1.6397845 2.2206328,0.42246269 2.2206328,0.42246269 Z" />
  <path
     id="path3"
     style="baseline-shift:baseline;display:inline;overflow:visible;fill:#00ebbe;stroke:#68b8d2;stroke-width:0.422608;stroke-linecap:round;stroke-linejoin:round;stroke-miterlimit:0;stroke-dasharray:none;stroke-opacity:1;paint-order:stroke markers fill;enable-background:accumulate;stop-color:#000000;stop-opacity:1"
     d="m 0.421804,2.4826939 c 0,0 0.9738328,-0.1081906 1.3207803,-0.475551 0.3469474,-0.3673604 0.4780498,-1.5846698 0.4780498,-1.5846698 0,0 0.1158267,1.2223952 0.4781004,1.5846698 0.3622737,0.3622744 1.3708091,0.475551 1.3708091,0.475551 0,0 -1.0085354,0.086629 -1.3708091,0.4489033 -0.3622747,0.3622739 -0.4781004,1.584888 -0.4781004,1.584888 0,0 -0.1330847,-1.2214501 -0.4780498,-1.584888 C 1.3976191,2.5681593 0.421804,2.4826939 0.421804,2.4826939 Z" />
</svg>
