<?xml version="1.0" encoding="UTF-8" standalone="no"?>
<!-- Created with Inkscape (http://www.inkscape.org/) -->

<svg
   width="3.8497291mm"
   height="4.2333331mm"
   viewBox="0 0 3.849729 4.2333331"
   version="1.1"
   id="svg1"
   xmlns="http://www.w3.org/2000/svg"
   xmlns:svg="http://www.w3.org/2000/svg">
  <defs
     id="defs1" />
  <path
     id="path16"
     style="fill:none;stroke:#260257;stroke-width:0.362235;stroke-linecap:round;stroke-linejoin:round;stroke-miterlimit:0;stroke-dasharray:none;stroke-opacity:1;paint-order:normal"
     d="m 1.903399,0.36211064 c 0,0 -0.1123292,1.04341846 -0.4097126,1.35829866 -0.2973834,0.3148802 -1.13214953,0.4076066 -1.13214953,0.4076066 0,0 0.83646513,0.073275 1.13214953,0.3847928 0.2956843,0.3115182 0.4097126,1.3584156 0.4097126,1.3584156 0,0 0.099309,-1.0478952 0.4098291,-1.3584156 0.3105209,-0.3105204 1.1749692,-0.3847928 1.1749692,-0.3847928 0,0 -0.8644483,-0.097086 -1.1749692,-0.4076066 C 2.0027084,1.4098882 1.903399,0.36211064 1.903399,0.36211064 Z m 0.00117,-0.1809895 c -0.09286,-5.9475e-4 -0.1711305,0.0691361 -0.1812202,0.16145152 0,0 -0.027271,0.25255961 -0.090202,0.54203246 C 1.5702183,1.174078 1.450018,1.5030453 1.3620755,1.5961618 1.2653709,1.698556 1.0037401,1.8076256 0.77125668,1.8667686 c -0.23248346,0.059143 -0.42971849,0.081311 -0.42971849,0.081311 -0.2165002,0.024918 -0.21270752,0.3406315 0.004328,0.3603412 0,0 0.1975276,0.017663 0.42983556,0.071717 0.23230795,0.054053 0.49282335,0.1582173 0.58684095,0.2572695 0.086102,0.090712 0.2065157,0.420143 0.2696709,0.7101527 0.063155,0.2900097 0.091139,0.5434366 0.091139,0.5434366 0.023949,0.2165096 0.3394861,0.2142557 0.360341,-0.00257 0,0 0.024088,-0.2533176 0.085288,-0.5426175 C 2.2301807,3.0565064 2.3514106,2.7310846 2.4414593,2.6410355 2.5424018,2.5400932 2.815263,2.4348908 3.0569639,2.38049 3.2986649,2.326089 3.5035295,2.308421 3.5035295,2.308421 3.7206455,2.289103 3.724952,1.9733103 3.5084795,1.9480799 c 0,0 -0.2056942,-0.023109 -0.4479696,-0.083066 C 2.818194,1.8050567 2.5439663,1.6946964 2.4414533,1.592184 2.3513919,1.5021217 2.2301753,1.1765481 2.1689747,0.88729612 2.1077739,0.59804398 2.0836866,0.34514651 2.0836866,0.34514651 2.0749085,0.252613 1.9975158,0.18174127 1.904569,0.18112114 Z m -0.00117,0.1809895 c 0,0 0.099309,1.04777756 0.4098291,1.35829866 0.3105209,0.3105208 1.1749692,0.4076066 1.1749692,0.4076066 0,0 -0.8644483,0.074272 -1.1749692,0.3847928 C 2.0027075,2.8233291 1.903399,3.8712243 1.903399,3.8712243 c 0,0 -0.1140283,-1.0468974 -0.4097126,-1.3584156 C 1.198002,2.2012906 0.36153687,2.1280159 0.36153687,2.1280159 c 0,0 0.83476613,-0.092726 1.13214953,-0.4076066 C 1.7910698,1.4055291 1.903399,0.36211064 1.903399,0.36211064 Z" />
  <path
     id="path3"
     style="baseline-shift:baseline;display:inline;overflow:visible;fill:#00ebbe;stroke:#68b8d2;stroke-width:0.362235;stroke-linecap:round;stroke-linejoin:round;stroke-miterlimit:0;stroke-dasharray:none;stroke-opacity:1;paint-order:stroke markers fill;enable-background:accumulate;stop-color:#000000;stop-opacity:1"
     d="m 0.36154601,2.1280227 c 0,0 0.83471369,-0.092735 1.13209719,-0.4076151 0.2973834,-0.3148802 0.4097569,-1.35828803 0.4097569,-1.35828803 0,0 0.09928,1.04776703 0.4098002,1.35828803 0.3105203,0.3105209 1.174979,0.4076151 1.174979,0.4076151 0,0 -0.8644587,0.074253 -1.174979,0.3847742 C 2.0026792,2.8233173 1.9034001,3.871272 1.9034001,3.871272 c 0,0 -0.1140726,-1.046957 -0.4097569,-1.3584751 C 1.1979588,2.2012787 0.36154601,2.1280227 0.36154601,2.1280227 Z" />
</svg>
