<?xml version="1.0" encoding="UTF-8" standalone="no"?>
<!-- Created with Inkscape (http://www.inkscape.org/) -->

<svg
   width="30.844593mm"
   height="18.694496mm"
   viewBox="0 0 30.844593 18.694496"
   version="1.1"
   id="svg1"
   sodipodi:docname="divider.svg"
   inkscape:version="1.4 (e7c3feb1, 2024-10-09)"
   xmlns:inkscape="http://www.inkscape.org/namespaces/inkscape"
   xmlns:sodipodi="http://sodipodi.sourceforge.net/DTD/sodipodi-0.dtd"
   xmlns="http://www.w3.org/2000/svg"
   xmlns:svg="http://www.w3.org/2000/svg">
  <sodipodi:namedview
     id="namedview1"
     pagecolor="#ffffff"
     bordercolor="#000000"
     borderopacity="0.25"
     inkscape:showpageshadow="2"
     inkscape:pageopacity="0.0"
     inkscape:pagecheckerboard="0"
     inkscape:deskcolor="#d1d1d1"
     inkscape:document-units="mm"
     inkscape:zoom="2.3356668"
     inkscape:cx="57.79934"
     inkscape:cy="72.570283"
     inkscape:window-width="1472"
     inkscape:window-height="803"
     inkscape:window-x="0"
     inkscape:window-y="37"
     inkscape:window-maximized="1"
     inkscape:current-layer="svg1" />
  <defs
     id="defs1" />
  <path
     id="path8"
     style="fill:none;stroke:#260257;stroke-width:1.6;stroke-linecap:round;stroke-linejoin:round;stroke-miterlimit:0;stroke-dasharray:none;stroke-opacity:1;paint-order:stroke markers fill"
     d="m 15.413253,0.80000012 c -0.406597,4.85e-5 -0.748498,0.30504748 -0.794784,0.70900068 0,0 -0.124882,1.096634 -0.413928,2.3533447 -0.289047,1.2567106 -0.835204,2.6748853 -1.244369,3.0840493 -0.464153,0.464152 -1.662072,0.966293 -2.714563,1.25212 -0.9413287,0.255639 -1.5756177,0.341664 -1.7363277,0.365353 -0.132553,-0.02103 -0.328592,-0.04497 -0.716752,-0.150379 -0.499207,-0.13557 -1.058507,-0.402216 -1.179773,-0.523482 -0.121266,-0.121267 -0.385844,-0.680566 -0.521415,-1.179773 -0.13557,-0.499207 -0.195337,-0.919841 -0.195337,-0.919841 -0.129722,-0.9174174 -1.454677,-0.9174174 -1.584399,0 0,0 -0.05976,0.420634 -0.195337,0.919841 -0.13557,0.499207 -0.400149,1.058506 -0.521415,1.179773 -0.121267,0.121266 -0.680049,0.387911 -1.179257,0.523482 -0.499207,0.135571 -0.921907,0.19327 -0.921907,0.19327 -0.92491904,0.124093 -0.92491904,1.4618572 0,1.5859502 0,0 0.4227,0.0577 0.921907,0.19327 0.499207,0.135571 1.05799,0.402215 1.179257,0.523482 0.121266,0.121267 0.385844,0.680566 0.521415,1.179773 0.135571,0.499208 0.195337,0.91984 0.195337,0.91984 0.129722,0.917418 1.454677,0.917418 1.584399,0 0,0 0.05976,-0.420633 0.195337,-0.91984 0.135571,-0.499207 0.400148,-1.058506 0.521415,-1.179773 0.121266,-0.121266 0.680566,-0.387911 1.179773,-0.523482 0.38816,-0.105413 0.584199,-0.129353 0.716752,-0.150379 0.16071,0.02369 0.795,0.109714 1.7363277,0.365352 1.052491,0.285827 2.25041,0.78745 2.714563,1.251604 0.416037,0.416039 0.957736,1.806356 1.246436,3.03754 0.2887,1.231185 0.413928,2.302702 0.413928,2.302702 0.115924,0.935599 1.472093,0.935599 1.588017,0 0,0 0.12523,-1.071518 0.413928,-2.302702 0.288699,-1.231183 0.829881,-2.621501 1.245919,-3.03754 0.464154,-0.464152 1.660522,-0.965777 2.713013,-1.251604 0.946612,-0.257074 1.591886,-0.344748 1.746146,-0.367419 0.128742,0.0203 0.331282,0.04566 0.724504,0.152446 0.499207,0.135571 1.058508,0.402216 1.179773,0.523482 0.121267,0.121267 0.387911,0.680566 0.523482,1.179773 0.135571,0.499207 0.19327,0.91984 0.19327,0.91984 0.124093,0.92492 1.461857,0.92492 1.58595,0 0,0 0.0577,-0.420633 0.19327,-0.91984 0.135571,-0.499207 0.402214,-1.058506 0.523482,-1.179773 0.121266,-0.121266 0.680566,-0.387911 1.179773,-0.523482 0.499207,-0.135571 0.91984,-0.19327 0.91984,-0.19327 0.92492,-0.124093 0.92492,-1.4618572 0,-1.5859502 0,0 -0.420633,-0.0577 -0.91984,-0.19327 -0.499207,-0.13557 -1.058508,-0.402217 -1.179773,-0.523482 -0.121267,-0.121267 -0.387911,-0.680566 -0.523482,-1.179773 -0.135571,-0.499207 -0.19327,-0.919841 -0.19327,-0.919841 -0.124093,-0.9249186 -1.461857,-0.9249186 -1.58595,0 0,0 -0.0577,0.420634 -0.19327,0.919841 -0.13557,0.499207 -0.402215,1.058506 -0.523482,1.179773 -0.121265,0.121265 -0.680566,0.387911 -1.179773,0.523482 -0.393223,0.106788 -0.595762,0.13163 -0.724504,0.151929 -0.15426,-0.02267 -0.799534,-0.10983 -1.746146,-0.366903 C 19.528922,7.9126878 18.332554,7.4105488 17.8684,6.9463948 17.459238,6.5372308 16.913594,5.1190564 16.624548,3.8623455 16.335501,2.6056345 16.208553,1.5090008 16.208553,1.5090008 16.162245,1.1048515 15.820046,0.79978592 15.413253,0.80000012 Z M 14.984855,4.0416627 c -0.07512,0.3266247 -0.161167,0.6638392 -0.258382,0.9968384 0.09721,-0.3329992 0.18326,-0.6702137 0.258382,-0.9968384 z m 0.858862,0 C 15.918837,4.3682874 16.004884,4.7055019 16.1021,5.0385011 16.00488,4.7055019 15.918839,4.3682874 15.843717,4.0416627 Z M 14.57196,5.5330446 c -0.108759,0.3248942 -0.228894,0.6378742 -0.361735,0.9239742 0.132841,-0.2861 0.252976,-0.59908 0.361735,-0.9239742 z M 4.5963423,7.7670168 c -0.09049,0.203823 -0.194467,0.393145 -0.313159,0.547253 0.118692,-0.154108 0.222665,-0.34343 0.313159,-0.547253 z m 20.6380167,0 c -0.0905,0.203823 -0.194467,0.393145 -0.31316,0.547253 0.118693,-0.154108 0.222665,-0.34343 0.31316,-0.547253 z M 4.2831833,10.485197 c 0.118692,0.15412 0.222665,0.343394 0.313159,0.547254 -0.09049,-0.20386 -0.194467,-0.393134 -0.313159,-0.547254 z m 20.6380157,0 c 0.118693,0.15412 0.222666,0.343394 0.31316,0.547254 -0.09049,-0.20386 -0.194467,-0.393134 -0.31316,-0.547254 z m -10.710974,1.848466 c 0.132841,0.282302 0.252976,0.590485 0.361735,0.910022 -0.108759,-0.319537 -0.228894,-0.62772 -0.361735,-0.910022 z" />
  <path
     id="path3"
     style="baseline-shift:baseline;display:inline;overflow:visible;fill:#00ebbe;stroke:#68b8d2;stroke-width:1.6;stroke-linecap:round;stroke-linejoin:round;stroke-miterlimit:0;stroke-dasharray:none;stroke-opacity:1;paint-order:stroke markers fill;enable-background:accumulate;stop-color:#000000;stop-opacity:1"
     d="m 13.526404,7.5119778 c 1.371579,-1.371578 1.887862,-5.9121392 1.887862,-5.9121392 0,0 0.516286,4.5405612 1.887859,5.9121392 1.371575,1.371577 5.112139,1.887861 5.112139,1.887861 0,0 -3.740564,0.516289 -5.112139,1.8878602 -1.371579,1.371579 -1.887859,5.81214 -1.887859,5.81214 0,0 -0.516289,-4.440561 -1.887862,-5.81214 C 12.154829,9.9161218 8.4142653,9.3998388 8.4142653,9.3998388 c 0,0 3.7405637,-0.51629 5.1121387,-1.887861 z m 11.271246,0.943977 c 0.685802,-0.685801 0.943947,-2.556116 0.943947,-2.556116 0,0 0.258149,1.870315 0.943948,2.556116 0.6858,0.685801 2.556116,0.943947 2.556116,0.943947 0,0 -1.870316,0.258149 -2.556116,0.9439472 -0.685802,0.685802 -0.943948,2.556117 -0.943948,2.556117 0,0 -0.258148,-1.870315 -0.943947,-2.556117 -0.6858,-0.6858012 -2.556117,-0.9439472 -2.556117,-0.9439472 0,0 1.870317,-0.258149 2.556117,-0.943947 z m -20.6378017,0 c 0.685801,-0.685801 0.943947,-2.556116 0.943947,-2.556116 0,0 0.258149,1.870315 0.943947,2.556116 0.685801,0.685801 2.556117,0.943947 2.556117,0.943947 0,0 -1.870316,0.258149 -2.556117,0.9439472 -0.685801,0.685802 -0.943947,2.556117 -0.943947,2.556117 0,0 -0.258149,-1.870315 -0.943947,-2.556117 -0.685801,-0.6858012 -2.556117,-0.9439472 -2.556117,-0.9439472 0,0 1.870316,-0.258149 2.556117,-0.943947 z" />
</svg>
