<?xml version="1.0" encoding="UTF-8" standalone="no"?>
<!-- Created with Inkscape (http://www.inkscape.org/) -->

<svg
   width="32.443626mm"
   height="20.295517mm"
   viewBox="0 0 32.443626 20.295517"
   version="1.1"
   id="svg1"
   sodipodi:docname="divider.svg"
   inkscape:version="1.4 (e7c3feb1, 2024-10-09)"
   xmlns:inkscape="http://www.inkscape.org/namespaces/inkscape"
   xmlns:sodipodi="http://sodipodi.sourceforge.net/DTD/sodipodi-0.dtd"
   xmlns="http://www.w3.org/2000/svg"
   xmlns:svg="http://www.w3.org/2000/svg">
  <sodipodi:namedview
     id="namedview1"
     pagecolor="#ffffff"
     bordercolor="#000000"
     borderopacity="0.25"
     inkscape:showpageshadow="2"
     inkscape:pageopacity="0.0"
     inkscape:pagecheckerboard="0"
     inkscape:deskcolor="#d1d1d1"
     inkscape:document-units="mm"
     inkscape:zoom="3.8892379"
     inkscape:cx="57.594831"
     inkscape:cy="64.794185"
     inkscape:window-width="1472"
     inkscape:window-height="806"
     inkscape:window-x="0"
     inkscape:window-y="37"
     inkscape:window-maximized="1"
     inkscape:current-layer="svg1" />
  <defs
     id="defs1" />
  <path
     id="path5"
     style="fill:none;stroke:#00ebbe;stroke-width:1.6;stroke-linecap:round;stroke-linejoin:round;stroke-miterlimit:0;stroke-dasharray:none;stroke-opacity:1;paint-order:stroke markers fill"
     d="m 16.213013,1.5999512 c -0.406597,4.85e-5 -0.748498,0.3050474 -0.794784,0.7090006 0,0 -0.124882,1.096634 -0.413928,2.3533447 C 14.715254,5.9190071 14.169097,7.337182 13.759932,7.746346 13.295779,8.210498 12.09786,8.712639 11.045369,8.998466 10.104041,9.254105 9.4697513,9.3401294 9.3090413,9.3638184 9.1764883,9.3427884 8.9804492,9.3188489 8.5922892,9.2134399 8.0930822,9.0778699 7.5337823,8.8112237 7.4125163,8.6899577 7.2912503,8.5686907 7.0266721,8.0093917 6.8911011,7.5101847 6.7555311,7.0109777 6.6957642,6.5903442 6.6957642,6.5903442 c -0.129722,-0.9174174 -1.4546775,-0.9174174 -1.5843995,0 0,0 -0.05976,0.4206335 -0.1953369,0.9198405 -0.13557,0.499207 -0.4001492,1.058506 -0.5214152,1.179773 -0.121267,0.121266 -0.6800482,0.3879112 -1.1792562,0.5234822 -0.499207,0.135571 -0.9219075,0.1932699 -0.9219075,0.1932699 -0.924919,0.124093 -0.924919,1.4618572 0,1.5859502 0,0 0.4227005,0.0577 0.9219075,0.193269 0.499207,0.135571 1.0579892,0.402216 1.1792562,0.523483 0.121266,0.121267 0.3858442,0.680566 0.5214152,1.179773 0.135571,0.499208 0.1953369,0.91984 0.1953369,0.91984 0.129722,0.917418 1.4546775,0.917418 1.5843995,0 0,0 0.05976,-0.420633 0.1953369,-0.91984 0.135571,-0.499207 0.4001482,-1.058506 0.5214152,-1.179773 0.121266,-0.121266 0.6805659,-0.387912 1.1797729,-0.523483 0.38816,-0.105413 0.5841991,-0.129352 0.7167521,-0.150378 0.16071,0.02369 0.7950007,0.109714 1.7363277,0.365352 1.052491,0.285827 2.25041,0.78745 2.714563,1.251604 0.416037,0.416039 0.957736,1.806356 1.246436,3.03754 0.2887,1.231185 0.413928,2.302702 0.413928,2.302702 0.115924,0.935599 1.472093,0.935599 1.588017,0 0,0 0.12523,-1.071518 0.413928,-2.302702 0.288699,-1.231183 0.829881,-2.621501 1.245919,-3.03754 0.464154,-0.464152 1.660522,-0.965777 2.713013,-1.251604 0.946612,-0.257074 1.591886,-0.344748 1.746146,-0.367419 0.128742,0.0203 0.331282,0.04566 0.724504,0.152445 0.499207,0.135571 1.058508,0.402217 1.179773,0.523483 0.121267,0.121267 0.387911,0.680566 0.523482,1.179773 0.135571,0.499207 0.19327,0.91984 0.19327,0.91984 0.124093,0.92492 1.461857,0.92492 1.58595,0 0,0 0.0577,-0.420633 0.19327,-0.91984 0.135571,-0.499207 0.402214,-1.058506 0.523482,-1.179773 0.121266,-0.121266 0.680566,-0.387912 1.179773,-0.523483 0.499207,-0.135571 0.91984,-0.193269 0.91984,-0.193269 0.92492,-0.124093 0.92492,-1.4618572 0,-1.5859502 0,0 -0.420633,-0.0577 -0.91984,-0.1932699 -0.499207,-0.13557 -1.058508,-0.4022172 -1.179773,-0.5234822 -0.121267,-0.121267 -0.387911,-0.680566 -0.523482,-1.179773 -0.135571,-0.499207 -0.19327,-0.9198405 -0.19327,-0.9198405 -0.124093,-0.9249186 -1.461857,-0.9249186 -1.58595,0 0,0 -0.0577,0.4206335 -0.19327,0.9198405 -0.13557,0.499207 -0.402215,1.058506 -0.523482,1.179773 C 24.910331,8.8112227 24.35103,9.0778689 23.851823,9.2134399 23.4586,9.3202279 23.256061,9.3450697 23.127319,9.3653687 22.973059,9.3426987 22.327785,9.255539 21.381173,8.998466 20.328682,8.712639 19.132314,8.2105 18.66816,7.746346 18.258998,7.337182 17.713354,5.9190074 17.424308,4.6622965 17.135261,3.4055855 17.008313,2.3089518 17.008313,2.3089518 16.962005,1.9048025 16.619806,1.599737 16.213013,1.5999512 Z m -0.001,-0.79995119 c -0.80578,0.001081 -1.496268,0.61727529 -1.588017,1.41800129 0,0 -0.120884,1.0588068 -0.398425,2.2654948 -0.134586,0.5851515 -0.334,1.2232033 -0.540535,1.7425293 -0.206535,0.5193261 -0.486761,0.9513317 -0.49041,0.9549805 -0.181494,0.1814934 -1.387584,0.78094 -2.359546,1.0448974 C 10.001733,8.4522084 9.5308313,8.5141042 9.3095581,8.5462972 9.1851725,8.5272962 9.0844257,8.5175471 8.8020955,8.4408773 8.6075868,8.3880544 8.3737844,8.3003663 8.1928304,8.2181519 8.1190227,8.1846182 8.0526377,8.1390164 7.998527,8.1034302 7.9632194,8.0500091 7.918759,7.9860251 7.8858724,7.9132609 7.8040381,7.7321961 7.7162401,7.4953638 7.663147,7.2998617 7.5417795,6.852952 7.4874471,6.4776896 7.4874471,6.4776896 7.3697229,5.6451229 6.6035897,5.1025798 5.9035645,5.1025798 c -0.7000252,0 -1.4661586,0.5425431 -1.5838827,1.3751098 0,0 -0.05433,0.3752742 -0.1756999,0.8221721 -0.053092,0.195501 -0.1408912,0.4323347 -0.2227254,0.6133992 -0.032992,0.072997 -0.077836,0.1372365 -0.1131714,0.190686 -0.053632,0.035485 -0.1184375,0.08089 -0.1917195,0.114205 C 3.4355748,8.3003409 3.1994762,8.3880721 3.0050334,8.4408773 2.5606489,8.56156 2.1849284,8.6145101 2.1849284,8.6145101 1.3479966,8.72782 0.80000001,9.4980707 0.80000001,10.20046 c 0,0.70239 0.54799479,1.472642 1.38492839,1.58595 0,0 0.3757188,0.05088 0.820105,0.171565 0.1944429,0.05281 0.4305413,0.140538 0.6113322,0.222726 0.0728,0.0331 0.1371125,0.07723 0.190686,0.112654 0.035439,0.05394 0.080778,0.120349 0.1142049,0.194304 0.081834,0.181065 0.1696324,0.41583 0.2227254,0.611332 0.1213683,0.44691 0.1756998,0.822172 0.1756999,0.822172 0.1177241,0.832567 0.8838573,1.37666 1.5838827,1.37666 0.7000255,0 1.4661585,-0.544093 1.5838826,-1.37666 0,0 0.05433,-0.375274 0.1756999,-0.822172 0.053093,-0.195502 0.1408913,-0.430267 0.2227254,-0.611332 0.033188,-0.07343 0.078303,-0.138872 0.1136881,-0.192753 0.054068,-0.03555 0.1198389,-0.08084 0.1932699,-0.114205 0.1809542,-0.08221 0.4147553,-0.169902 0.6092651,-0.222726 0.2823284,-0.07667 0.3830902,-0.08642 0.5074626,-0.10542 0.2212851,0.0322 0.6921759,0.09409 1.5254879,0.320394 0.972198,0.264021 2.178263,0.863614 2.359546,1.044898 0.01571,0.01571 0.288213,0.437585 0.494027,0.947229 0.205813,0.509644 0.404745,1.134908 0.538985,1.707389 0.276886,1.180802 0.398425,2.212785 0.398425,2.212785 -6e-6,0.0019 -6e-6,0.0038 0,0.0057 0.104773,0.845604 0.88103,1.404566 1.588017,1.404566 0.706986,0 1.483244,-0.558962 1.588017,-1.404566 6.96e-4,-0.0019 0.0014,-0.0038 0.0021,-0.0057 0,0 0.119474,-1.031983 0.396358,-2.212785 0.134264,-0.572583 0.333288,-1.197737 0.538985,-1.707389 0.205698,-0.509651 0.478435,-0.931637 0.494027,-0.947229 0.181916,-0.181916 1.385474,-0.780929 2.357479,-1.044898 0.839436,-0.227968 1.320779,-0.292561 1.537374,-0.324011 0.123928,0.01896 0.226354,0.03101 0.513664,0.109037 0.19451,0.05282 0.430378,0.140512 0.611332,0.222726 0.07326,0.03329 0.138053,0.07816 0.191719,0.113688 0.03562,0.05415 0.08104,0.120677 0.114722,0.19482 0.08221,0.180954 0.169901,0.415272 0.222725,0.609782 0.120829,0.444924 0.173633,0.818037 0.173633,0.818038 0.11331,0.836931 0.883561,1.384928 1.58595,1.384928 0.702098,0 1.470075,-0.548583 1.583883,-1.384928 0,0 0.05332,-0.373113 0.174149,-0.818038 0.05282,-0.194511 0.140512,-0.428828 0.222726,-0.609782 0.03345,-0.07362 0.07864,-0.13918 0.114205,-0.19327 0.05413,-0.03561 0.12029,-0.08161 0.194303,-0.115238 0.180954,-0.08221 0.414755,-0.169902 0.609265,-0.222726 0.444924,-0.120829 0.818555,-0.173633 0.818555,-0.173633 0.836345,-0.113808 1.384411,-0.881784 1.384411,-1.583882 0,-0.7023897 -0.547479,-1.4726401 -1.384411,-1.5859499 h -0.0021 C 30.255414,8.6142735 29.884538,8.56143 29.440629,8.4408773 29.246121,8.3880545 29.012318,8.3003665 28.831364,8.2181519 28.757179,8.1844468 28.690178,8.1385377 28.636027,8.1029134 28.600517,8.0492641 28.55608,7.9843207 28.522856,7.9111938 28.440642,7.7302399 28.352954,7.4943719 28.30013,7.2998617 28.179301,6.8549384 28.125981,6.4818237 28.125981,6.4818237 28.012173,5.6454788 27.244196,5.0968953 26.542098,5.0968953 c -0.702904,0 -1.473523,0.5485084 -1.58595,1.3864787 -2.37e-4,0.0017 -0.05308,0.3725788 -0.173633,0.8164877 -0.05282,0.1945091 -0.140511,0.4303784 -0.222725,0.6113321 -0.0334,0.073522 -0.07865,0.1390581 -0.114205,0.1927531 -0.05369,0.035553 -0.118743,0.080813 -0.192236,0.114205 -0.180954,0.082215 -0.416823,0.1699019 -0.611332,0.2227254 -0.286802,0.077887 -0.389046,0.090088 -0.513664,0.1090373 -0.217794,-0.031567 -0.69818,-0.09611 -1.537374,-0.3240113 C 20.619208,7.9619978 19.415624,7.3631305 19.2335,7.1810059 19.229969,7.1774751 18.951578,6.7453598 18.745158,6.2260254 18.538739,5.7066911 18.338715,5.0687483 18.204106,4.4834961 17.926378,3.2759965 17.80413,2.2180013 17.80413,2.2180013 17.712338,1.416896 17.020206,0.80056138 16.214046,0.80000001 Z m 0.001,0.79995119 c 0.406793,-2.142e-4 0.748992,0.3048513 0.7953,0.7090006 0,0 0.126948,1.0966337 0.415995,2.3533447 0.289046,1.2567109 0.83469,2.6748855 1.243852,3.0840495 0.464154,0.464154 1.660522,0.966293 2.713013,1.25212 0.946612,0.257073 1.591886,0.3442327 1.746146,0.3669027 0.128742,-0.020299 0.331281,-0.045141 0.724504,-0.1519288 0.499207,-0.135571 1.058508,-0.4022172 1.179773,-0.5234822 0.121267,-0.121267 0.387912,-0.680566 0.523482,-1.179773 0.13557,-0.499207 0.19327,-0.9198405 0.19327,-0.9198405 0.124093,-0.9249186 1.461857,-0.9249186 1.58595,0 0,0 0.0577,0.4206335 0.19327,0.9198405 0.135571,0.499207 0.402215,1.058506 0.523482,1.179773 0.121265,0.121265 0.680566,0.3879122 1.179773,0.5234822 0.499207,0.13557 0.91984,0.1932699 0.91984,0.1932699 0.92492,0.124093 0.92492,1.4618572 0,1.5859502 0,0 -0.420633,0.0577 -0.91984,0.193269 -0.499207,0.135571 -1.058507,0.402217 -1.179773,0.523483 -0.121268,0.121267 -0.387911,0.680566 -0.523482,1.179773 -0.13557,0.499207 -0.19327,0.91984 -0.19327,0.91984 -0.124093,0.92492 -1.461857,0.92492 -1.58595,0 0,0 -0.0577,-0.420633 -0.19327,-0.91984 -0.135571,-0.499207 -0.402215,-1.058506 -0.523482,-1.179773 -0.121265,-0.121266 -0.680566,-0.387912 -1.179773,-0.523483 -0.393222,-0.106786 -0.595762,-0.132145 -0.724504,-0.152445 -0.15426,0.02267 -0.799534,0.110345 -1.746146,0.367419 -1.052491,0.285827 -2.248859,0.787452 -2.713013,1.251604 -0.416038,0.416039 -0.95722,1.806357 -1.245919,3.03754 -0.288698,1.231184 -0.413928,2.302702 -0.413928,2.302702 -0.115924,0.935599 -1.472093,0.935599 -1.588017,0 0,0 -0.125228,-1.071517 -0.413928,-2.302702 -0.2887,-1.231184 -0.830399,-2.621501 -1.246436,-3.03754 -0.464119,-0.464154 -1.662038,-0.965777 -2.714529,-1.251604 -0.941327,-0.255638 -1.5756177,-0.341662 -1.7363277,-0.365352 -0.132553,0.02103 -0.3285921,0.04497 -0.7167521,0.150378 -0.499207,0.135571 -1.0585069,0.402217 -1.1797729,0.523483 -0.121267,0.121267 -0.3858442,0.680566 -0.5214152,1.179773 -0.135577,0.499207 -0.1953369,0.91984 -0.1953369,0.91984 -0.129722,0.917418 -1.4546775,0.917418 -1.5843995,0 0,0 -0.059766,-0.420632 -0.1953369,-0.91984 C 4.7804568,12.389978 4.5158786,11.830679 4.3946126,11.709412 4.2733456,11.588145 3.7145634,11.3215 3.2153564,11.185929 2.7161494,11.050359 2.2934489,10.99266 2.2934489,10.99266 c -0.924919,-0.124093 -0.924919,-1.4618572 0,-1.5859502 0,0 0.4227005,-0.057699 0.9219075,-0.1932699 0.499208,-0.135571 1.0579892,-0.4022162 1.1792562,-0.5234822 0.121266,-0.121267 0.3858452,-0.680566 0.5214152,-1.179773 0.135577,-0.499207 0.1953369,-0.9198405 0.1953369,-0.9198405 0.129722,-0.9174174 1.4546775,-0.9174174 1.5843995,0 0,0 0.059767,0.4206335 0.1953369,0.9198405 0.135571,0.499207 0.4001492,1.058506 0.5214152,1.179773 0.121266,0.121266 0.6805659,0.3879122 1.1797729,0.5234822 0.38816,0.105409 0.5841991,0.1293485 0.7167521,0.1503785 0.16071,-0.023689 0.7949997,-0.1097134 1.7363277,-0.3653524 1.052491,-0.285827 2.25041,-0.787968 2.714563,-1.25212 0.409165,-0.409164 0.955322,-1.8273389 1.244369,-3.0840495 0.289046,-1.2567107 0.413928,-2.3533447 0.413928,-2.3533447 0.04629,-0.4039532 0.388187,-0.7089521 0.794784,-0.7090006 z" />
  <path
     id="path8"
     style="display:inline;fill:none;stroke:#260257;stroke-width:1.6;stroke-linecap:round;stroke-linejoin:round;stroke-miterlimit:0;stroke-dasharray:none;stroke-opacity:1;paint-order:stroke markers fill"
     d="m 16.213253,1.6000001 c -0.406597,4.85e-5 -0.748498,0.3050475 -0.794784,0.7090007 0,0 -0.124882,1.096634 -0.413928,2.3533447 -0.289047,1.2567106 -0.835204,2.6748853 -1.244369,3.0840493 -0.464153,0.464152 -1.662072,0.966293 -2.714563,1.25212 -0.941329,0.255639 -1.5756177,0.341664 -1.7363277,0.365353 -0.132553,-0.02103 -0.328592,-0.04497 -0.716752,-0.150379 -0.499207,-0.13557 -1.058507,-0.402216 -1.179773,-0.523482 -0.121266,-0.121267 -0.385844,-0.680566 -0.521415,-1.179773 -0.13557,-0.499207 -0.195337,-0.919841 -0.195337,-0.919841 -0.129722,-0.9174174 -1.454677,-0.9174174 -1.584399,0 0,0 -0.05976,0.420634 -0.195337,0.919841 -0.13557,0.499207 -0.400149,1.058506 -0.521415,1.179773 -0.121267,0.121266 -0.680049,0.387911 -1.179257,0.523482 -0.499207,0.135571 -0.921907,0.19327 -0.921907,0.19327 -0.924919,0.124093 -0.924919,1.4618572 0,1.5859502 0,0 0.4227,0.0577 0.921907,0.19327 0.499207,0.135571 1.05799,0.402215 1.179257,0.523482 0.121266,0.121267 0.385844,0.680566 0.521415,1.179773 0.135571,0.499208 0.195337,0.91984 0.195337,0.91984 0.129722,0.917418 1.454677,0.917418 1.584399,0 0,0 0.05976,-0.420633 0.195337,-0.91984 0.135571,-0.499207 0.400148,-1.058506 0.521415,-1.179773 0.121266,-0.121266 0.680566,-0.387911 1.179773,-0.523482 0.38816,-0.105413 0.584199,-0.129353 0.716752,-0.150379 0.16071,0.02369 0.7949997,0.109714 1.7363277,0.365352 1.052491,0.285827 2.25041,0.78745 2.714563,1.251604 0.416037,0.416039 0.957736,1.806356 1.246436,3.03754 0.2887,1.231185 0.413928,2.302702 0.413928,2.302702 0.115924,0.935599 1.472093,0.935599 1.588017,0 0,0 0.12523,-1.071518 0.413928,-2.302702 0.288699,-1.231183 0.829881,-2.621501 1.245919,-3.03754 0.464154,-0.464152 1.660522,-0.965777 2.713013,-1.251604 0.946612,-0.257074 1.591886,-0.344748 1.746146,-0.367419 0.128742,0.0203 0.331282,0.04566 0.724504,0.152446 0.499207,0.135571 1.058508,0.402216 1.179773,0.523482 0.121267,0.121267 0.387911,0.680566 0.523482,1.179773 0.135571,0.499207 0.19327,0.91984 0.19327,0.91984 0.124093,0.92492 1.461857,0.92492 1.58595,0 0,0 0.0577,-0.420633 0.19327,-0.91984 0.135571,-0.499207 0.402214,-1.058506 0.523482,-1.179773 0.121266,-0.121266 0.680566,-0.387911 1.179773,-0.523482 0.499207,-0.135571 0.91984,-0.19327 0.91984,-0.19327 0.92492,-0.124093 0.92492,-1.4618572 0,-1.5859502 0,0 -0.420633,-0.0577 -0.91984,-0.19327 -0.499207,-0.13557 -1.058508,-0.402217 -1.179773,-0.523482 -0.121267,-0.121267 -0.387911,-0.680566 -0.523482,-1.179773 -0.135571,-0.499207 -0.19327,-0.919841 -0.19327,-0.919841 -0.124093,-0.9249186 -1.461857,-0.9249186 -1.58595,0 0,0 -0.0577,0.420634 -0.19327,0.919841 -0.13557,0.499207 -0.402215,1.058506 -0.523482,1.179773 -0.121265,0.121265 -0.680566,0.387911 -1.179773,0.523482 -0.393223,0.106788 -0.595762,0.13163 -0.724504,0.151929 -0.15426,-0.02267 -0.799534,-0.10983 -1.746146,-0.366903 C 20.328922,8.7126878 19.132554,8.2105488 18.6684,7.7463948 18.259238,7.3372308 17.713594,5.9190564 17.424548,4.6623455 17.135501,3.4056345 17.008553,2.3090008 17.008553,2.3090008 16.962245,1.9048515 16.620046,1.5997859 16.213253,1.6000001 Z m -0.428398,3.2416626 c -0.07512,0.3266247 -0.161167,0.6638392 -0.258382,0.9968384 0.09721,-0.3329992 0.18326,-0.6702137 0.258382,-0.9968384 z m 0.858862,0 C 16.718837,5.1682874 16.804884,5.5055019 16.9021,5.8385011 16.80488,5.5055019 16.718839,5.1682874 16.643717,4.8416627 Z M 15.37196,6.3330446 c -0.108759,0.3248942 -0.228894,0.6378742 -0.361735,0.9239742 0.132841,-0.2861 0.252976,-0.59908 0.361735,-0.9239742 z M 5.3963423,8.5670168 c -0.09049,0.203823 -0.194467,0.393145 -0.313159,0.547253 0.118692,-0.154108 0.222665,-0.34343 0.313159,-0.547253 z m 20.6380167,0 c -0.0905,0.203823 -0.194467,0.393145 -0.31316,0.547253 0.118693,-0.154108 0.222665,-0.34343 0.31316,-0.547253 z M 5.0831833,11.285197 c 0.118692,0.15412 0.222665,0.343394 0.313159,0.547254 -0.09049,-0.20386 -0.194467,-0.393134 -0.313159,-0.547254 z m 20.6380157,0 c 0.118693,0.15412 0.222666,0.343394 0.31316,0.547254 -0.09049,-0.20386 -0.194467,-0.393134 -0.31316,-0.547254 z m -10.710974,1.848466 c 0.132841,0.282302 0.252976,0.590485 0.361735,0.910022 -0.108759,-0.319537 -0.228894,-0.62772 -0.361735,-0.910022 z" />
  <path
     id="path3"
     style="baseline-shift:baseline;display:inline;overflow:visible;fill:#00ebbe;stroke:#68b8d2;stroke-width:1.6;stroke-linecap:round;stroke-linejoin:round;stroke-miterlimit:0;stroke-dasharray:none;stroke-opacity:1;paint-order:stroke markers fill;enable-background:accumulate;stop-color:#000000;stop-opacity:1"
     d="m 14.326404,8.3119778 c 1.371579,-1.371578 1.887862,-5.9121392 1.887862,-5.9121392 0,0 0.516286,4.5405612 1.887859,5.9121392 1.371575,1.371577 5.112139,1.8878612 5.112139,1.8878612 0,0 -3.740564,0.516289 -5.112139,1.88786 -1.371579,1.371579 -1.887859,5.81214 -1.887859,5.81214 0,0 -0.516289,-4.440561 -1.887862,-5.81214 -1.371575,-1.371577 -5.1121387,-1.88786 -5.1121387,-1.88786 0,0 3.7405637,-0.5162902 5.1121387,-1.8878612 z m 11.271246,0.943977 c 0.685802,-0.685801 0.943947,-2.556116 0.943947,-2.556116 0,0 0.258149,1.870315 0.943948,2.556116 0.6858,0.685801 2.556116,0.9439472 2.556116,0.9439472 0,0 -1.870316,0.258149 -2.556116,0.943947 -0.685802,0.685802 -0.943948,2.556117 -0.943948,2.556117 0,0 -0.258148,-1.870315 -0.943947,-2.556117 -0.6858,-0.685801 -2.556117,-0.943947 -2.556117,-0.943947 0,0 1.870317,-0.2581492 2.556117,-0.9439472 z m -20.6378017,0 c 0.685801,-0.685801 0.943947,-2.556116 0.943947,-2.556116 0,0 0.258149,1.870315 0.943947,2.556116 0.685801,0.685801 2.556117,0.9439472 2.556117,0.9439472 0,0 -1.870316,0.258149 -2.556117,0.943947 -0.685801,0.685802 -0.943947,2.556117 -0.943947,2.556117 0,0 -0.258149,-1.870315 -0.943947,-2.556117 -0.685801,-0.685801 -2.556117,-0.943947 -2.556117,-0.943947 0,0 1.870316,-0.2581492 2.556117,-0.9439472 z" />
</svg>
