<?xml version="1.0" encoding="UTF-8" standalone="no"?>
<!-- Created with Inkscape (http://www.inkscape.org/) -->

<svg
   version="1.1"
   id="svg2"
   sodipodi:version="0.32"
   inkscape:version="1.4 (e7c3feb1, 2024-10-09)"
   sodipodi:docname="email.svg"
   inkscape:output_extension="org.inkscape.output.svg.inkscape"
   x="0px"
   y="0px"
   width="81.799606"
   height="81.799606"
   viewBox="0 0 81.799606 81.799606"
   enable-background="new 0 0 256 256"
   xml:space="preserve"
   inkscape:export-filename="../Documents/Websites/Neshametha.github.io/img/linkedin.svg"
   inkscape:export-xdpi="96"
   inkscape:export-ydpi="96"
   xmlns:inkscape="http://www.inkscape.org/namespaces/inkscape"
   xmlns:sodipodi="http://sodipodi.sourceforge.net/DTD/sodipodi-0.dtd"
   xmlns="http://www.w3.org/2000/svg"
   xmlns:svg="http://www.w3.org/2000/svg"><defs
   id="defs2" />
<sodipodi:namedview
   showgrid="false"
   inkscape:window-maximized="0"
   pagecolor="#ffffff"
   bordercolor="#666666"
   id="base"
   borderopacity="1.0"
   inkscape:cx="20.688026"
   inkscape:pageopacity="0.0"
   inkscape:pageshadow="2"
   inkscape:zoom="5.1962425"
   inkscape:cy="42.626956"
   inkscape:document-units="px"
   inkscape:current-layer="layer2"
   inkscape:window-width="1472"
   inkscape:window-height="803"
   inkscape:window-x="0"
   inkscape:window-y="37"
   inkscape:showpageshadow="2"
   inkscape:pagecheckerboard="0"
   inkscape:deskcolor="#d1d1d1">
	</sodipodi:namedview>
<g
   id="layer1"
   transform="translate(-453.73731,-383.93345)"
   inkscape:label="Layer 1"
   inkscape:groupmode="layer"
   style="display:inline">
	
		<path
   id="path5"
   style="fill:#260257;stroke:#260257;stroke-width:7.2;stroke-linecap:round;stroke-linejoin:round;stroke-dasharray:none;stroke-opacity:1"
   d="m 469.8588,387.53345 c -6.89409,0 -12.52149,5.62707 -12.52149,12.52149 v 49.55664 c 0,6.89441 5.62747,12.52148 12.52149,12.52148 h 49.55664 c 6.89408,0 12.52148,-5.62732 12.52148,-12.52148 v -49.55664 c 3.5e-4,-6.89453 -5.62565,-12.52149 -12.51953,-12.52149 z m 0,3.59961 h 49.55859 c 4.94793,0 8.92017,3.97298 8.91992,8.92188 v 49.55664 c 0,4.94865 -3.97352,8.92187 -8.92187,8.92187 H 469.8588 c -4.94843,0 -8.92188,-3.97287 -8.92188,-8.92187 v -49.55664 c 0,-4.94901 3.97352,-8.92188 8.92188,-8.92188 z m 0,0 c -4.94836,0 -8.92188,3.97287 -8.92188,8.92188 v 49.55664 c 0,4.949 3.97345,8.92187 8.92188,8.92187 h 49.55664 c 4.94835,0 8.92187,-3.97322 8.92187,-8.92187 v -49.55664 c 2.5e-4,-4.9489 -3.97199,-8.92188 -8.91992,-8.92188 z" /><path
   id="rect1942"
   inkscape:export-filename="C:\Documents and Settings\Molumen\Desktop\path3511111.png"
   inkscape:export-xdpi="7.7063322"
   inkscape:export-ydpi="7.7063322"
   fill="#1d8cb5"
   d="m 519.41702,389.33287 h -49.55773 c -5.92123,0 -10.72129,4.80045 -10.72129,10.72216 v 49.55599 c 0,5.92171 4.80006,10.72185 10.72129,10.72185 h 49.55742 c 5.92122,0 10.72129,-4.80044 10.72129,-10.72185 v -49.55569 c 3e-4,-5.92171 -4.80007,-10.72246 -10.72098,-10.72246 z"
   style="display:inline;fill:#68b8d2;fill-opacity:1;stroke:#00ebbe;stroke-width:3.6;stroke-linecap:round;stroke-linejoin:round;stroke-dasharray:none;stroke-opacity:1;paint-order:normal" />
	
		<linearGradient
   id="path1950_1_"
   gradientUnits="userSpaceOnUse"
   x1="-808.87268"
   y1="199.8918"
   x2="-860.56921"
   y2="49.2029"
   gradientTransform="matrix(-0.5915,0,0,-0.5915,-34.5417,412.5453)">
		<stop
   offset="0"
   style="stop-color:#FFFFFF"
   id="stop1" />
		<stop
   offset="1"
   style="stop-color:#FFFFFF;stop-opacity:0"
   id="stop2" />
	</linearGradient>
	
		
</g>
<g
   id="layer1_1_"
   transform="translate(-280.64729,-459.55172)"
   inkscape:label="Layer 1"
   inkscape:groupmode="layer"
   style="display:inline">
	
</g>
<g
   inkscape:groupmode="layer"
   id="layer2"
   inkscape:label="Layer 2"><text
     xml:space="preserve"
     style="font-style:normal;font-variant:normal;font-weight:normal;font-stretch:normal;font-size:48.8342px;line-height:0;font-family:Arial;-inkscape-font-specification:Arial;text-align:start;letter-spacing:-3.91111px;writing-mode:lr-tb;direction:ltr;text-anchor:start;fill:#00ebbe;fill-opacity:1;stroke:#00ebbe;stroke-width:1.7344;stroke-linecap:round;stroke-linejoin:round;stroke-miterlimit:0;stroke-dasharray:none;stroke-opacity:1;paint-order:normal"
     x="16.446936"
     y="53.854679"
     id="text6"><tspan
       sodipodi:role="line"
       id="tspan6"
       x="16.446936"
       y="53.854679"
       style="font-style:normal;font-variant:normal;font-weight:bold;font-stretch:normal;font-size:48.8342px;font-family:Arial;-inkscape-font-specification:'Arial Bold';stroke:#00ebbe;stroke-width:1.7344;stroke-dasharray:none;stroke-opacity:1;fill:#00ebbe;fill-opacity:1">@</tspan></text></g></svg>
