<?xml version="1.0" encoding="UTF-8" standalone="no"?>
<!-- Created with Inkscape (http://www.inkscape.org/) -->

<svg
   width="18.69838mm"
   height="18.702145mm"
   viewBox="0 0 18.69838 18.702145"
   version="1.1"
   id="svg1"
   sodipodi:docname="favicon.svg"
   inkscape:version="1.4 (e7c3feb1, 2024-10-09)"
   inkscape:export-filename="../Documents/Websites/Neshametha.github.io/img/favicon.svg"
   inkscape:export-xdpi="96"
   inkscape:export-ydpi="96"
   xmlns:inkscape="http://www.inkscape.org/namespaces/inkscape"
   xmlns:sodipodi="http://sodipodi.sourceforge.net/DTD/sodipodi-0.dtd"
   xmlns="http://www.w3.org/2000/svg"
   xmlns:svg="http://www.w3.org/2000/svg">
  <sodipodi:namedview
     id="namedview1"
     pagecolor="#ffffff"
     bordercolor="#000000"
     borderopacity="0.25"
     inkscape:showpageshadow="2"
     inkscape:pageopacity="0.0"
     inkscape:pagecheckerboard="0"
     inkscape:deskcolor="#d1d1d1"
     inkscape:document-units="mm"
     inkscape:zoom="5.269807"
     inkscape:cx="42.31654"
     inkscape:cy="47.914468"
     inkscape:window-width="1472"
     inkscape:window-height="803"
     inkscape:window-x="0"
     inkscape:window-y="37"
     inkscape:window-maximized="0"
     inkscape:current-layer="svg1" />
  <defs
     id="defs1" />
  <path
     id="path5"
     style="display:inline;fill:none;stroke:#00ebbe;stroke-width:3.6;stroke-linecap:round;stroke-linejoin:round;stroke-miterlimit:0;stroke-dasharray:none;stroke-opacity:1;paint-order:stroke markers fill"
     d="M 10.179824,1.801317 C 9.7997226,1.82148 9.4653646,2.081713 9.3607526,2.4601915 c 0,0 -0.237676,0.8590664 -0.638721,1.8417481 -0.401045,0.9826817 -1.043471,2.0697708 -1.431437,2.3672973 -0.387965,0.2975269 -1.6031,0.6349319 -2.656169,0.7673949 -1.053069,0.132463 -1.945618,0.138493 -1.945618,0.138493 -1.044703,0.0081 -1.239268,1.490478 -0.232027,1.767851 0,0 0.859066,0.237675 1.841748,0.63872 0.982682,0.4010462 2.069254,1.0414052 2.366781,1.4293712 0.297527,0.387965 0.635449,1.605166 0.767912,2.658235 0.132464,1.053069 0.138492,1.943551 0.138492,1.943551 0.0075,1.044995 1.490387,1.240057 1.767851,0.232544 0,0 0.237159,-0.857516 0.638204,-1.840198 0.4010464,-0.982682 1.0419214,-2.06977 1.4298874,-2.367297 0.387965,-0.297527 1.605167,-0.634932 2.658236,-0.767395 1.053069,-0.132464 1.94355,-0.14056 1.94355,-0.14056 1.04368,-0.0078 1.239746,-1.4880612 0.234095,-1.7673342 0,0 -0.859066,-0.237676 -1.841748,-0.638721 C 13.419107,8.3228458 12.332018,7.6819708 12.034491,7.2940048 11.736964,6.9060388 11.399559,5.6888381 11.267096,4.6357693 11.134632,3.5827005 11.128603,2.6922187 11.128603,2.6922187 c -0.0039,-0.4490339 -0.33815,-0.8265086 -0.783414,-0.8847005 -0.05562,-0.00728 -0.111065,-0.00908 -0.165365,-0.0062 z m 0.04754,0.8981364 c 0,0 0.0015,0.2342628 0.02067,0.6077148 -0.01915,-0.373452 -0.02067,-0.6077148 -0.02067,-0.6077148 z m 0,0 c 0,0 -0.06244,0.2261684 -0.177767,0.5818766 0.115329,-0.3557082 0.177767,-0.5818766 0.177767,-0.5818766 z M 8.3401426,6.8749088 c -0.08019,0.100475 -0.162279,0.193984 -0.24598,0.279053 0.0837,-0.08507 0.165788,-0.178578 0.24598,-0.279053 z m 2.6272304,0.346749 c 0.05139,0.117836 0.106072,0.229447 0.164848,0.333313 -0.05878,-0.103866 -0.113455,-0.215477 -0.164848,-0.333313 z m -3.4158124,0.348816 c -0.103867,0.05877 -0.215478,0.113462 -0.333313,0.164848 0.117835,-0.05139 0.229446,-0.106076 0.333313,-0.164848 z m 3.9971724,0.5271 c 0.08507,0.0837 0.178578,0.165787 0.279052,0.24598 -0.100474,-0.08019 -0.193983,-0.16228 -0.279052,-0.24598 z m -8.2449754,0.356567 c -0.373452,0.0191 -0.607715,0.02067 -0.607715,0.02067 0,0 0.22612,0.06244 0.581877,0.177767 -0.355757,-0.115329 -0.581877,-0.177767 -0.581877,-0.177767 0,0 0.234263,-0.0016 0.607715,-0.02067 z M 15.421365,10.05301 c 0.355708,0.115328 0.581876,0.177767 0.581876,0.177767 0,0 -0.234263,0.0016 -0.607715,0.02067 0.373452,-0.0191 0.607715,-0.02067 0.607715,-0.02067 0,0 -0.226168,-0.06244 -0.581876,-0.177767 z m -8.5493494,0.309025 c 0.100481,0.08019 0.19398,0.162279 0.279052,0.24598 -0.08507,-0.0837 -0.178571,-0.165788 -0.279052,-0.24598 z m 4.6090214,0.608232 c -0.117836,0.05139 -0.229447,0.106076 -0.333313,0.164847 0.103866,-0.05877 0.215477,-0.113461 0.333313,-0.164847 z m -3.9134574,0.18035 c 0.05877,0.10387 0.113462,0.215471 0.164848,0.333313 -0.05139,-0.117842 -0.106076,-0.229443 -0.164848,-0.333313 z m 3.0375414,0.401009 c -0.0837,0.08507 -0.165787,0.178571 -0.24598,0.279053 0.08019,-0.100482 0.16228,-0.19398 0.24598,-0.279053 z M 8.4512466,15.39842 c 0.0191,0.373501 0.02067,0.608232 0.02067,0.608232 0,0 0.06244,-0.22612 0.177767,-0.581877 -0.115328,0.355757 -0.177767,0.581877 -0.177767,0.581877 0,0 -0.0016,-0.234731 -0.02067,-0.608232 z" />
  <path
     id="path4"
     style="display:inline;fill:none;fill-opacity:1;stroke:#260257;stroke-width:1.8;stroke-linecap:round;stroke-linejoin:round;stroke-miterlimit:0;stroke-dasharray:none;stroke-opacity:1;paint-order:stroke markers fill"
     d="M 10.179824,1.801317 C 9.7997226,1.82148 9.4653646,2.081713 9.3607526,2.4601915 c 0,0 -0.237676,0.8590664 -0.638721,1.8417481 -0.401045,0.9826817 -1.043471,2.0697708 -1.431437,2.3672973 -0.387965,0.2975269 -1.6031,0.6349319 -2.656169,0.7673949 -1.053069,0.132463 -1.945618,0.138493 -1.945618,0.138493 -1.044703,0.0081 -1.239268,1.490478 -0.232027,1.767851 0,0 0.859066,0.237675 1.841748,0.63872 0.982682,0.4010462 2.069254,1.0414052 2.366781,1.4293712 0.297527,0.387965 0.635449,1.605166 0.767912,2.658235 0.132464,1.053069 0.138492,1.943551 0.138492,1.943551 0.0075,1.044995 1.490387,1.240057 1.767851,0.232544 0,0 0.237159,-0.857516 0.638204,-1.840198 0.4010464,-0.982682 1.0419214,-2.06977 1.4298874,-2.367297 0.387965,-0.297527 1.605167,-0.634932 2.658236,-0.767395 1.053069,-0.132464 1.94355,-0.14056 1.94355,-0.14056 1.04368,-0.0078 1.239746,-1.4880612 0.234095,-1.7673342 0,0 -0.859066,-0.237676 -1.841748,-0.638721 C 13.419107,8.3228458 12.332018,7.6819708 12.034491,7.2940048 11.736964,6.9060388 11.399559,5.6888381 11.267096,4.6357693 11.134632,3.5827005 11.128603,2.6922187 11.128603,2.6922187 c -0.0039,-0.4490339 -0.33815,-0.8265086 -0.783414,-0.8847005 -0.05562,-0.00728 -0.111065,-0.00908 -0.165365,-0.0062 z m 0.04754,0.8981364 c 0,0 0.0015,0.2342628 0.02067,0.6077148 -0.01915,-0.373452 -0.02067,-0.6077148 -0.02067,-0.6077148 z m 0,0 c 0,0 -0.06244,0.2261684 -0.177767,0.5818766 0.115329,-0.3557082 0.177767,-0.5818766 0.177767,-0.5818766 z M 8.3401426,6.8749088 c -0.08019,0.100475 -0.162279,0.193984 -0.24598,0.279053 0.0837,-0.08507 0.165788,-0.178578 0.24598,-0.279053 z m 2.6272304,0.346749 c 0.05139,0.117836 0.106072,0.229447 0.164848,0.333313 -0.05878,-0.103866 -0.113455,-0.215477 -0.164848,-0.333313 z m -3.4158124,0.348816 c -0.103867,0.05877 -0.215478,0.113462 -0.333313,0.164848 0.117835,-0.05139 0.229446,-0.106076 0.333313,-0.164848 z m 3.9971724,0.5271 c 0.08507,0.0837 0.178578,0.165787 0.279052,0.24598 -0.100474,-0.08019 -0.193983,-0.16228 -0.279052,-0.24598 z m -8.2449754,0.356567 c -0.373452,0.0191 -0.607715,0.02067 -0.607715,0.02067 0,0 0.22612,0.06244 0.581877,0.177767 -0.355757,-0.115329 -0.581877,-0.177767 -0.581877,-0.177767 0,0 0.234263,-0.0016 0.607715,-0.02067 z M 15.421365,10.05301 c 0.355708,0.115328 0.581876,0.177767 0.581876,0.177767 0,0 -0.234263,0.0016 -0.607715,0.02067 0.373452,-0.0191 0.607715,-0.02067 0.607715,-0.02067 0,0 -0.226168,-0.06244 -0.581876,-0.177767 z m -8.5493494,0.309025 c 0.100481,0.08019 0.19398,0.162279 0.279052,0.24598 -0.08507,-0.0837 -0.178571,-0.165788 -0.279052,-0.24598 z m 4.6090214,0.608232 c -0.117836,0.05139 -0.229447,0.106076 -0.333313,0.164847 0.103866,-0.05877 0.215477,-0.113461 0.333313,-0.164847 z m -3.9134574,0.18035 c 0.05877,0.10387 0.113462,0.215471 0.164848,0.333313 -0.05139,-0.117842 -0.106076,-0.229443 -0.164848,-0.333313 z m 3.0375414,0.401009 c -0.0837,0.08507 -0.165787,0.178571 -0.24598,0.279053 0.08019,-0.100482 0.16228,-0.19398 0.24598,-0.279053 z M 8.4512466,15.39842 c 0.0191,0.373501 0.02067,0.608232 0.02067,0.608232 0,0 0.06244,-0.22612 0.177767,-0.581877 -0.115328,0.355757 -0.177767,0.581877 -0.177767,0.581877 0,0 -0.0016,-0.234731 -0.02067,-0.608232 z" />
  <path
     id="path1842"
     style="display:inline;fill:#00ebbe;fill-opacity:1;stroke:#68b8d2;stroke-width:1.8;stroke-linecap:round;stroke-linejoin:round;stroke-miterlimit:0;stroke-opacity:1;paint-order:stroke markers fill"
     inkscape:transform-center-x="0.39299997"
     inkscape:transform-center-y="0.29853144"
     d="M 7.8387184,7.3826328 C 9.2293191,6.3161961 10.227681,2.6994316 10.227681,2.6994316 c 0,0 0.02619,3.7519356 1.092627,5.1425358 1.066436,1.3906002 4.6832,2.3889626 4.6832,2.3889626 0,0 -3.751935,0.02619 -5.142536,1.092627 -1.3905997,1.066436 -2.3889621,4.6832 -2.3889621,4.6832 0,0 -0.02619,-3.751935 -1.0926263,-5.142536 C 6.3129469,9.4736207 2.6961824,8.4752591 2.6961824,8.4752591 c 0,0 3.7519358,-0.02619 5.142536,-1.0926263 z"
     sodipodi:nodetypes="acacacaca" />
</svg>
