<?xml version="1.0" encoding="UTF-8" standalone="no"?>
<!-- Created with Inkscape (http://www.inkscape.org/) -->

<svg
   version="1.1"
   id="svg2"
   sodipodi:version="0.32"
   inkscape:version="1.4 (e7c3feb1, 2024-10-09)"
   sodipodi:docname="linkedin.svg"
   inkscape:output_extension="org.inkscape.output.svg.inkscape"
   x="0px"
   y="0px"
   width="81.799606"
   height="81.799606"
   viewBox="0 0 81.799606 81.799606"
   enable-background="new 0 0 256 256"
   xml:space="preserve"
   xmlns:inkscape="http://www.inkscape.org/namespaces/inkscape"
   xmlns:sodipodi="http://sodipodi.sourceforge.net/DTD/sodipodi-0.dtd"
   xmlns="http://www.w3.org/2000/svg"
   xmlns:svg="http://www.w3.org/2000/svg"><defs
   id="defs2" />
<sodipodi:namedview
   showgrid="false"
   inkscape:window-maximized="1"
   pagecolor="#ffffff"
   bordercolor="#666666"
   id="base"
   borderopacity="1.0"
   inkscape:cx="36.391415"
   inkscape:pageopacity="0.0"
   inkscape:pageshadow="2"
   inkscape:zoom="5.4683226"
   inkscape:cy="48.095187"
   inkscape:document-units="px"
   inkscape:current-layer="layer1"
   inkscape:window-width="1472"
   inkscape:window-height="806"
   inkscape:window-x="0"
   inkscape:window-y="37"
   inkscape:showpageshadow="2"
   inkscape:pagecheckerboard="0"
   inkscape:deskcolor="#d1d1d1">
	<inkscape:page
   x="0"
   y="0"
   width="81.799606"
   height="81.799606"
   id="page2"
   margin="0"
   bleed="0" /></sodipodi:namedview>
<g
   id="layer1"
   transform="translate(-453.73731,-383.93345)"
   inkscape:label="Layer 1"
   inkscape:groupmode="layer"
   style="display:inline">
	
		<path
   id="path5"
   style="fill:#260257;stroke:#00ebbe;stroke-width:7.2;stroke-linecap:round;stroke-linejoin:round;stroke-dasharray:none;stroke-opacity:1"
   d="m 469.8588,387.53345 c -6.89409,0 -12.52149,5.62707 -12.52149,12.52149 v 49.55664 c 0,6.89441 5.62747,12.52148 12.52149,12.52148 h 49.55664 c 6.89408,0 12.52148,-5.62732 12.52148,-12.52148 v -49.55664 c 3.5e-4,-6.89453 -5.62565,-12.52149 -12.51953,-12.52149 z m 0,3.59961 h 49.55859 c 4.94793,0 8.92017,3.97298 8.91992,8.92188 v 49.55664 c 0,4.94865 -3.97352,8.92187 -8.92187,8.92187 H 469.8588 c -4.94843,0 -8.92188,-3.97287 -8.92188,-8.92187 v -49.55664 c 0,-4.94901 3.97352,-8.92188 8.92188,-8.92188 z m 0,0 c -4.94836,0 -8.92188,3.97287 -8.92188,8.92188 v 49.55664 c 0,4.949 3.97345,8.92187 8.92188,8.92187 h 49.55664 c 4.94835,0 8.92187,-3.97322 8.92187,-8.92187 v -49.55664 c 2.5e-4,-4.9489 -3.97199,-8.92188 -8.91992,-8.92188 z" /><path
   id="rect1942"
   inkscape:export-filename="C:\Documents and Settings\Molumen\Desktop\path3511111.png"
   inkscape:export-xdpi="7.7063322"
   inkscape:export-ydpi="7.7063322"
   fill="#1d8cb5"
   d="m 519.41702,389.33287 h -49.55773 c -5.92123,0 -10.72129,4.80045 -10.72129,10.72216 v 49.55599 c 0,5.92171 4.80006,10.72185 10.72129,10.72185 h 49.55742 c 5.92122,0 10.72129,-4.80044 10.72129,-10.72185 v -49.55569 c 3e-4,-5.92171 -4.80007,-10.72246 -10.72098,-10.72246 z"
   style="display:inline;fill:#68b8d2;fill-opacity:1;stroke:#260257;stroke-width:3.6;stroke-linecap:round;stroke-linejoin:round;stroke-dasharray:none;stroke-opacity:1;paint-order:normal" />
	
		<linearGradient
   id="path1950_1_"
   gradientUnits="userSpaceOnUse"
   x1="-808.87268"
   y1="199.8918"
   x2="-860.56921"
   y2="49.2029"
   gradientTransform="matrix(-0.5915,0,0,-0.5915,-34.5417,412.5453)">
		<stop
   offset="0"
   style="stop-color:#FFFFFF"
   id="stop1" />
		<stop
   offset="1"
   style="stop-color:#FFFFFF;stop-opacity:0"
   id="stop2" />
	</linearGradient>
	
		
</g>
<g
   id="layer1_1_"
   transform="translate(-280.64729,-459.55172)"
   inkscape:label="Layer 1"
   inkscape:groupmode="layer"
   style="display:inline">
	<g
   id="g3019"
   transform="matrix(0.30780663,0,0,-0.30783156,273.82777,493.22135)"
   style="fill:#00ebbe;fill-opacity:1">
		<path
   id="path28_1_"
   inkscape:connector-curvature="0"
   fill="#ffffff"
   d="M 109.495,-101.774 V 2.533 H 74.828 V -101.774 Z M 92.168,16.775 c 12.081,0 19.612,8.01 19.612,18.021 -0.224,10.233 -7.531,18.021 -19.385,18.021 -11.864,0 -19.615,-7.788 -19.615,-18.021 0,-10.011 7.521,-18.021 19.159,-18.021 z"
   style="fill:#00ebbe;fill-opacity:1" />
		<path
   id="path30_1_"
   inkscape:connector-curvature="0"
   fill="#ffffff"
   d="m 128.681,-101.774 h 34.673 v 58.249 c 0,3.119 0.226,6.235 1.143,8.462 2.5,6.232 8.209,12.681 17.784,12.681 12.547,0 17.562,-9.568 17.562,-23.588 v -55.804 h 34.666 v 59.81 c 0,32.039 -17.1,46.946 -39.913,46.946 -18.701,0 -26.915,-10.45 -31.476,-17.571 h 0.234 V 2.533 h -34.673 c 0.46,-9.786 0,-104.307 0,-104.307 z"
   style="fill:#00ebbe;fill-opacity:1" />
	</g>
</g>
</svg>
